<?xml version="1.0" encoding="utf-8"?>
<!-- Generator: Adobe Illustrator 19.2.1, SVG Export Plug-In . SVG Version: 6.00 Build 0)  -->
<svg version="1.1" id="Layer_1" xmlns="http://www.w3.org/2000/svg" xmlns:xlink="http://www.w3.org/1999/xlink" x="0px" y="0px"
	 viewBox="0 0 590.1 290.6" style="enable-background:new 0 0 590.1 290.6;" xml:space="preserve">
<style type="text/css">
	.st0{display:none;}
	.st1{display:inline;}
	.st2{fill:none;stroke:#000000;stroke-width:0.25;stroke-miterlimit:10;}
	.st3{display:inline;fill:none;stroke:#000000;stroke-width:0.25;stroke-miterlimit:10;}
	.st4{display:inline;fill:none;stroke:#222222;stroke-width:0.25;stroke-miterlimit:10;}
	.st5{fill:none;stroke:#222222;stroke-width:0.25;stroke-miterlimit:10;}
	.st6{display:inline;fill:none;stroke:#000000;stroke-width:0.5;stroke-linecap:round;stroke-linejoin:round;}
	.st7{fill:none;stroke:#000000;stroke-width:0.5;stroke-linecap:round;stroke-linejoin:round;}
	.st8{fill:#222222;}
	.st9{fill:#F5F5F6;}
	.st10{fill:#F5F6F5;}
	.st11{fill:#F6F8F8;}
	.st12{fill:#F5F5F5;}
</style>
<g id="Originial" class="st0">
	<g id="XMLID_2_" class="st1">
		<g>
			<polygon class="st2" points="1309.3,172 1263.3,152.4 1283.1,182.1 			"/>
			<polygon class="st2" points="1335.4,172 1381.4,152.4 1361.6,182.1 			"/>
			<path class="st2" d="M1322.4,297.3c1.5,0,2.9-0.4,4.4-0.7c7.4-1.9,14.9-3.7,22.3-5.6c0.6-0.2,1.3-0.3,1.7-0.8
				c0.3-0.3,0.4-0.8,0.6-1.2c7.3-25.4,14.3-51.1,22.4-76.3c0.8-2.8,1.6-5.6,3-8.1c1.8-3.4,4.5-6.2,7.1-9
				c10.7-11.2,21.3-22.4,31.9-33.6c-5.6-7.5-11.2-15.1-16.8-22.6c-0.8-1.1-1.6-2.2-2-3.5c-1.3-4,1.7-7.9,3.4-11.8
				c3-6.7,2.5-14.4,1.9-21.7c-1.3-16.1-2.6-32.2-3.9-48.4c-13.3,12.9-26.7,25.8-40.1,38.8c-0.9,0.9-1.9,1.8-3.1,2.3
				c-1.7,0.7-3.7,0.5-5.5,0.2c-8.8-1.2-17.9-3-26.9-3.1c-9.3-0.2-18.5,1.8-27.7,3.1c-1.8,0.3-3.8,0.5-5.5-0.2
				c-1.2-0.5-2.1-1.4-3.1-2.3c-13.3-12.9-26.7-25.8-40.1-38.8c-1.3,16.1-2.6,32.2-3.9,48.4c-0.6,7.3-1.1,15,1.9,21.7
				c1.7,3.8,4.6,7.8,3.4,11.8c-0.4,1.3-1.2,2.4-2,3.5c-5.6,7.5-11.2,15.1-16.8,22.6c10.7,11.2,21.3,22.4,31.9,33.6
				c2.6,2.8,5.3,5.6,7.1,9c1.3,2.5,2.2,5.3,3,8.1c3.1,12.9,7.6,25.6,11.3,38.4c3.7,12.6,7.5,25.3,11.1,38c0.1,0.5,0.3,1,0.7,1.4
				c0.3,0.3,0.8,0.4,1.3,0.6c7.6,1.9,15.3,3.8,22.9,5.8c1.2,0.3,2.5,0.6,3.8,0.7C1322.2,297.3,1322.3,297.3,1322.4,297.3z"/>
		</g>
	</g>
	<line class="st3" x1="1437.4" y1="204.8" x2="1437.4" y2="204.8"/>
	<line class="st3" x1="1438.4" y1="204.8" x2="1438.4" y2="204.8"/>
	<path class="st3" d="M1371.2,231.2c2.5-8.3,4.5-17,8.6-24.6c2.8-5.1,6.6-8.9,10.4-13.1c2.8-3.2,5.8-6.3,8.8-9.5
		c6.8-7.4,13.6-14.8,20.5-22.1l-19.9-26.4c-0.1-0.3,5.3-4.3,5.9-4.9c4.5-4.5,7.5-11,10.8-16.4c3.5-5.6,7-11.2,10.5-16.8
		c4.4-7,8.8-14.1,13.2-21.1l8.5,49.2l46.9,8.7l2.1,8.4c0.6,0.1,1.2,0.3,1.8,0.4c5.4,1.1,10.8,2.3,16.2,3.4
		c7.4,1.6,14.8,3.1,22.2,4.7c3.1,0.7,6.2,1.3,9.3,2c1.2,0.2,2.3,0.5,3.5,0.7c1,0.2,2.7,0.9,3.7,0.6c0.5-0.2,0.9-0.5,1.4-0.8
		c0.6-0.4,1.2-0.9,1.8-1.3c0.2-0.1,0.4-0.3,0.6-0.3s0.4,0.1,0.6,0.1c3.6,1.5,7.2,3,10.8,4.6c0.1,0,0.2,0.1,0.2,0.1
		c0.1,0.1,0,0.2,0,0.3c-0.2,2.1-0.4,4.2-0.6,6.3c0,0.6-0.1,1.1-0.3,1.6c-0.2,0.5-0.5,1-0.7,1.5c-0.7,1.2-1.5,2.5-2.2,3.7
		c-0.2,0.3-1.2,2.5-1.5,2.6c-0.6,0.1-1.2,0.1-1.8,0.2l-4.9,10.3l-4-9.3c-0.7,0.1-1.4,0.2-2.2,0.3c-0.9,3.1-3.1,10.1-3.3,10
		c-0.2-0.1-2.9-6.1-4.3-9.1c-0.7,0.1-1.3,0.2-2,0.2l-2.8,9.4l-4.7-8.5c-0.4,0-0.8,0.1-1.2,0.1l-3.3,8.3l-5.1-7.3
		c-0.5,0.1-1,0.1-1.6,0.2l-3.6,7.2l-3.8-6.3c-4.2,0.5-8.4,1-12.6,1.5c-0.1,0-0.2,0-0.3,0.1c-0.1,0.1-0.1,0.3-0.1,0.4
		c0,3.7-0.1,7.4-0.1,11c0,0.1,0,0.3,0.1,0.4c0.1,0.1,0.2,0.1,0.3,0.1c3.5,0.5,6.9,1.1,10.4,1.6l3.2-6.4l3,7.4
		c0.9,0.1,1.7,0.3,2.6,0.4l3-7.8l4.1,8.9c0.8,0.1,1.6,0.2,2.4,0.4l2.7-9.3l3.7,10.3c0.6,0.1,1.2,0.2,1.9,0.3l3.3-10l3.4,10.9
		c0.5,0.1,1,0.1,1.5,0.2l4.7-10.3l2.9,11.4c0.2,0,0.4,0.1,0.6,0.1c0.3,0.1,0.5,0.1,0.7,0.3c0.1,0.2,0.2,0.4,0.3,0.6
		c0.9,3.8,0.8,7.9-0.1,11.7c0,0.2-0.1,0.3-0.2,0.4c-0.1,0.1-0.3,0.1-0.5,0.1c-12.4,0.2-24.8,0.4-37.1,0.6
		c-6.6,0.1-13.2,0.1-19.8,0.1c-9.9,0-19.7,2.7-29.2,5.1c-6,1.5-12,3.1-18,4.6c-1.5,0.4-2.9,0.7-4.3,1.3c-0.9,0.4-1.8,0.9-2.7,1.4
		c-3.4,2.2-6,5.5-8.9,8.3c-2.4,2.2-4.7,4.4-7,6.6c-5.2,4.9-10.3,9.8-15.5,14.7c-6.1,5.8-12.3,11.6-18.4,17.4
		c-0.1,0.1-0.2,0.2-0.3,0.2c0,0,0,0-0.1,0c-0.2,0-0.3,0-0.5-0.1c-3.7-1.8-7.3-3.5-11-5.2c-7-3.3-14.1-6.6-21.1-9.8
		C1365.7,249.3,1368.5,240.3,1371.2,231.2z"/>
	<line class="st3" x1="1207.2" y1="204.8" x2="1207.2" y2="204.8"/>
	<line class="st3" x1="1206.2" y1="204.8" x2="1206.2" y2="204.8"/>
	<path class="st3" d="M1273.4,231.2c-2.5-8.3-4.5-17-8.6-24.6c-2.8-5.1-6.6-8.9-10.4-13.1c-2.8-3.2-5.8-6.3-8.8-9.5
		c-6.8-7.4-13.6-14.8-20.5-22.1l19.9-26.4c0.1-0.3-5.3-4.3-5.9-4.9c-4.5-4.5-7.5-11-10.8-16.4c-3.5-5.6-7-11.2-10.5-16.8
		c-4.4-7-8.8-14.1-13.2-21.1l-8.5,49.2l-46.9,8.7l-2.1,8.4c-0.6,0.1-1.2,0.3-1.8,0.4c-5.4,1.1-10.8,2.3-16.2,3.4
		c-7.4,1.6-14.8,3.1-22.2,4.7c-3.1,0.7-6.2,1.3-9.3,2c-1.2,0.2-2.3,0.5-3.5,0.7c-1,0.2-2.7,0.9-3.7,0.6c-0.5-0.2-0.9-0.5-1.4-0.8
		c-0.6-0.4-1.2-0.9-1.8-1.3c-0.2-0.1-0.4-0.3-0.6-0.3s-0.4,0.1-0.6,0.1c-3.6,1.5-7.2,3-10.8,4.6c-0.1,0-0.2,0.1-0.2,0.1
		c-0.1,0.1,0,0.2,0,0.3c0.2,2.1,0.4,4.2,0.6,6.3c0,0.6,0.1,1.1,0.3,1.6c0.2,0.5,0.5,1,0.7,1.5c0.7,1.2,1.5,2.5,2.2,3.7
		c0.2,0.3,1.2,2.5,1.5,2.6c0.6,0.1,1.2,0.1,1.8,0.2l4.9,10.3l4-9.3c0.7,0.1,1.4,0.2,2.2,0.3c0.9,3.1,3.1,10.1,3.3,10
		c0.2-0.1,2.9-6.1,4.3-9.1c0.7,0.1,1.3,0.2,2,0.2l2.8,9.4l4.7-8.5c0.4,0,0.8,0.1,1.2,0.1l3.3,8.3l5.1-7.3c0.5,0.1,1,0.1,1.6,0.2
		l3.6,7.2l3.8-6.3c4.2,0.5,8.4,1,12.6,1.5c0.1,0,0.2,0,0.3,0.1c0.1,0.1,0.1,0.3,0.1,0.4c0,3.7,0.1,7.4,0.1,11c0,0.1,0,0.3-0.1,0.4
		c-0.1,0.1-0.2,0.1-0.3,0.1c-3.5,0.5-6.9,1.1-10.4,1.6l-3.2-6.4l-3,7.4c-0.9,0.1-1.7,0.3-2.6,0.4l-3-7.8l-4.1,8.9
		c-0.8,0.1-1.6,0.2-2.4,0.4l-2.7-9.3l-3.7,10.3c-0.6,0.1-1.2,0.2-1.9,0.3l-3.3-10l-3.4,10.9c-0.5,0.1-1,0.1-1.5,0.2l-4.7-10.3
		l-2.9,11.4c-0.2,0-0.4,0.1-0.6,0.1c-0.3,0.1-0.5,0.1-0.7,0.3c-0.1,0.2-0.2,0.4-0.3,0.6c-0.9,3.8-0.8,7.9,0.1,11.7
		c0,0.2,0.1,0.3,0.2,0.4c0.1,0.1,0.3,0.1,0.5,0.1c12.4,0.2,24.8,0.4,37.1,0.6c6.6,0.1,13.2,0.1,19.8,0.1c9.9,0,19.7,2.7,29.2,5.1
		c6,1.5,12,3.1,18,4.6c1.5,0.4,2.9,0.7,4.3,1.3c0.9,0.4,1.8,0.9,2.7,1.4c3.4,2.2,6,5.5,8.9,8.3c2.4,2.2,4.7,4.4,7,6.6
		c5.2,4.9,10.3,9.8,15.5,14.7c6.1,5.8,12.3,11.6,18.4,17.4c0.1,0.1,0.2,0.2,0.3,0.2c0,0,0,0,0.1,0c0.2,0,0.3,0,0.5-0.1
		c3.7-1.8,7.3-3.5,11-5.2c7-3.3,14.1-6.6,21.1-9.8C1278.9,249.3,1276.2,240.3,1273.4,231.2z"/>
	<polygon class="st3" points="1485,147.9 1447.3,140.4 1466.2,158.7 	"/>
	<polygon class="st3" points="1159.7,147.9 1197.3,140.4 1178.4,158.7 	"/>
	<polygon class="st3" points="1444.4,220 1420,195.8 1430.2,170.1 1428.2,170.1 1417.7,196.3 1441.9,220.5 1443.1,221.7 
		1445.1,220.7 	"/>
	<polygon class="st3" points="1342,279 1322.4,270.7 1302.7,279 1302.7,280.9 1322.4,272.5 1342,280.9 	"/>
	<polygon class="st3" points="1200.3,220 1224.6,195.8 1214.4,170.1 1216.4,170.1 1226.9,196.3 1202.8,220.5 1201.5,221.7 
		1199.5,220.7 	"/>
</g>
<g id="Base_Shapes" class="st0">
	<g id="XMLID_1_" class="st1">
		<g>
			<polygon class="st2" points="1262,134.4 1221.1,117 1238.7,143.4 			"/>
			<polygon class="st2" points="1285.2,134.4 1326.1,117 1308.5,143.4 			"/>
			<path class="st2" d="M1273.6,245.8c1.3,0,2.6-0.3,3.9-0.7c6.6-1.7,13.2-3.3,19.8-5c0.5-0.1,1.1-0.3,1.5-0.7
				c0.3-0.3,0.4-0.7,0.5-1.1c6.5-22.6,12.8-45.4,20-67.8c0.7-2.5,1.5-5,2.7-7.2c1.6-3,4-5.5,6.3-8c9.5-10,18.9-19.9,28.4-29.9
				c-5-6.7-10-13.4-14.9-20.1c-0.7-1-1.4-2-1.8-3.1c-1.1-3.6,1.5-7.1,3-10.5c2.7-5.9,2.2-12.8,1.7-19.3c-1.2-14.3-2.3-28.7-3.5-43
				c-11.9,11.5-23.7,23-35.6,34.5c-0.8,0.8-1.7,1.6-2.7,2.1c-1.5,0.7-3.2,0.4-4.9,0.2c-7.8-1.1-15.9-2.6-23.9-2.8
				c-8.2-0.2-16.5,1.6-24.6,2.8c-1.6,0.2-3.3,0.4-4.9-0.2c-1-0.4-1.9-1.3-2.7-2.1c-11.9-11.5-23.7-23-35.6-34.5
				c-1.2,14.3-2.3,28.7-3.5,43c-0.5,6.5-1,13.4,1.7,19.3c1.5,3.4,4.1,6.9,3,10.5c-0.4,1.2-1.1,2.1-1.8,3.1c-5,6.7-10,13.4-14.9,20.1
				c9.5,10,18.9,19.9,28.4,29.9c2.3,2.5,4.7,5,6.3,8c1.2,2.3,1.9,4.7,2.7,7.2c2.8,11.5,6.7,22.8,10.1,34.1
				c3.3,11.2,6.7,22.5,9.9,33.7c0.1,0.4,0.3,0.9,0.6,1.2c0.3,0.3,0.7,0.4,1.1,0.5c6.8,1.7,13.6,3.4,20.3,5.1
				c1.1,0.3,2.2,0.6,3.3,0.6C1273.5,245.8,1273.5,245.8,1273.6,245.8z"/>
		</g>
	</g>
	<polygon class="st3" points="1291.1,229.6 1273.6,222.2 1256.1,229.6 1256.1,231.3 1273.6,223.8 1291.1,231.3 	"/>
</g>
<g id="option_2_-_no_color" class="st0">
	<polygon class="st4" points="1411.2,251.9 1450,237.8 1430.6,263.4 	"/>
	<g class="st1">
		<polygon class="st5" points="1405.8,297.7 1394.8,297.5 1389.4,314.3 1385.3,297.6 1380.9,296.4 1378.1,320.6 1392.4,327.2 
			1397.4,308.7 1401.5,327.3 1405.8,327.3 1410.1,327.3 1414.2,308.7 1419.2,327.2 1433.5,320.6 1430.7,296.4 1426.4,297.6 
			1422.2,314.3 1416.8,297.5 		"/>
	</g>
	<path class="st4" d="M1464,243c-0.8-1.4-1.6-2.8-2-4.4c0,0,0,0-0.1-0.4c-0.4-2.2-0.4-4.5-0.2-6.7c0.5-5.1,0.9-10.2,1.4-15.4
		c0.4-4.7-0.5-9.7-0.8-14.4c-0.8-10.3-1.6-20.6-2.4-30.9c-0.1-1.7-0.4-3.5-0.4-5.3c-11.4,15.8-22.7,38.6-34.1,54.5c0,0,0,0.1-0.1,0
		c-8.2-2.4-16.8-3.3-25.2-2.6c-5.7,6-11.4,12-17.1,18c-2.6,2.8-5.3,5.6-7.1,9c-1.3,2.5-2.2,5.3-3,8.1c-4.5,14-8.6,28.1-12.7,42.2
		c1.2,1.8,2.3,3.6,3.2,5.6c1.5,3.4,2.4,7.2,3.2,10.9c1,4.6,2.1,9.3,3.1,13.9c0.2,1.1,0.5,2.3,1.2,3.1c0.6,0.8,1.5,1.3,2.3,1.7
		c10.1,5.2,21.1,7.8,32.2,7.9c10.9,0.1,21.8-2.3,31.8-7.1c1-0.5,2-1,2.7-2c0.7-0.9,1-2.2,1.2-3.3c1.1-4.7,2.1-9.5,3.2-14.2
		c0.8-3.8,1.7-7.5,3.2-11c1.3-3,3.2-5.6,5-8.3c7.2-10.5,14.4-21,21.6-31.4C1470.7,254.8,1467.3,248.9,1464,243z"/>
	<path class="st4" d="M1373,252.6c0.8-2.8,1.6-5.6,3-8.1c1.8-3.4,4.5-6.2,7.1-9"/>
	<path class="st4" d="M1375.9,244.5c-1.3,2.5-2.2,5.3-3,8.1c-0.2,0.6-0.4,1.2-0.6,1.8l6.8,9l19.4-11.5l-22.2-8.1
		C1376.2,244,1376.1,244.3,1375.9,244.5z"/>
	<g id="XMLID_3_" class="st1">
		<g>
			<polygon class="st5" points="1306.5,211 1260.6,191.4 1280.4,221.2 			"/>
			<polygon class="st5" points="1332.7,211 1378.7,191.4 1358.9,221.2 			"/>
			<path class="st5" d="M1319.6,336.3c1.5,0,2.9-0.4,4.4-0.7c7.4-1.9,14.9-3.7,22.3-5.6c0.6-0.2,1.3-0.3,1.7-0.8
				c0.3-0.4,0.4-0.8,0.6-1.3c7.3-25.4,14.3-51.1,22.4-76.3c0.8-2.8,1.6-5.6,3-8.1c1.8-3.4,4.5-6.2,7.1-9
				c10.7-11.2,21.3-22.4,31.9-33.6c-5.6-7.5-11.2-15-16.8-22.6c-0.8-1.1-1.6-2.2-2-3.5c-1.3-4,1.7-8,3.4-11.8
				c3-6.6,2.5-14.4,1.9-21.7c-1.3-16.1-2.6-32.3-3.9-48.4c-13.3,12.9-26.7,25.8-40.1,38.8c-0.9,0.9-1.9,1.8-3.1,2.3
				c-1.7,0.7-3.7,0.5-5.5,0.2c-8.8-1.2-17.9-2.9-26.9-3.1c-9.3-0.2-18.5,1.8-27.7,3.1c-1.8,0.3-3.8,0.5-5.5-0.2
				c-1.2-0.5-2.1-1.4-3.1-2.3c-13.3-12.9-26.7-25.8-40.1-38.8c-1.3,16.1-2.6,32.2-3.9,48.4c-0.6,7.3-1.1,15,1.9,21.7
				c1.7,3.8,4.6,7.8,3.4,11.8c-0.4,1.3-1.2,2.4-2,3.5c-5.6,7.5-11.2,15.1-16.8,22.6c10.7,11.2,21.3,22.4,31.9,33.6
				c2.6,2.8,5.3,5.6,7.1,9c1.3,2.5,2.2,5.3,3,8.1c3.1,12.9,7.6,25.6,11.3,38.4c3.7,12.6,7.5,25.3,11.1,38c0.1,0.5,0.3,1,0.7,1.4
				c0.3,0.3,0.8,0.4,1.3,0.6c7.6,1.9,15.3,3.8,22.9,5.8c1.2,0.3,2.5,0.6,3.8,0.7C1319.4,336.3,1319.5,336.3,1319.6,336.3z"/>
		</g>
	</g>
	<polygon class="st4" points="1339.3,318 1319.6,309.7 1300,318 1300,319.9 1319.6,311.6 1339.3,319.9 	"/>
	<polygon class="st4" points="1417.1,282.9 1404.6,277.6 1392.1,282.9 1392.1,284.1 1404.6,278.8 1417.1,284.1 	"/>
	<polygon class="st4" points="1228,251.9 1189.3,237.8 1208.6,263.4 	"/>
	<g class="st1">
		<polygon class="st5" points="1233.4,297.7 1244.4,297.5 1249.8,314.3 1254,297.6 1258.3,296.4 1261.1,320.6 1246.9,327.2 
			1241.9,308.7 1237.8,327.3 1233.4,327.3 1229.1,327.3 1225,308.7 1220,327.2 1205.7,320.6 1208.5,296.4 1212.9,297.6 
			1217.1,314.3 1222.5,297.5 		"/>
	</g>
	<path class="st4" d="M1175.3,243c0.8-1.4,1.6-2.8,2-4.4c0,0,0,0,0.1-0.4c0.4-2.2,0.4-4.5,0.2-6.7c-0.5-5.1-0.9-10.2-1.4-15.4
		c-0.4-4.7,0.5-9.7,0.8-14.4c0.8-10.3,1.6-20.6,2.4-30.9c0.1-1.7,0.4-3.5,0.4-5.3c11.4,15.8,22.7,38.6,34.1,54.5c0,0,0,0.1,0.1,0
		c8.2-2.4,16.8-3.3,25.2-2.6c5.7,6,11.4,12,17.1,18c2.6,2.8,5.3,5.6,7.1,9c1.3,2.5,2.2,5.3,3,8.1c4.5,14,8.6,28.1,12.7,42.2
		c-1.2,1.8-2.3,3.6-3.2,5.6c-1.5,3.4-2.4,7.2-3.2,10.9c-1,4.6-2.1,9.3-3.1,13.9c-0.2,1.1-0.5,2.3-1.2,3.1c-0.6,0.8-1.5,1.3-2.3,1.7
		c-10.1,5.2-21.1,7.8-32.2,7.9c-10.9,0.1-21.8-2.3-31.8-7.1c-1-0.5-2-1-2.7-2c-0.7-0.9-1-2.2-1.2-3.3c-1.1-4.7-2.1-9.5-3.2-14.2
		c-0.8-3.8-1.7-7.5-3.2-11c-1.3-3-3.2-5.6-5-8.3c-7.2-10.5-14.4-21-21.6-31.4C1168.5,254.8,1171.9,248.9,1175.3,243z"/>
	<path class="st4" d="M1263.3,244.5c1.3,2.5,2.2,5.3,3,8.1c0.2,0.6,0.4,1.2,0.6,1.8l-6.8,9l-19.4-11.5l22.2-8.1
		C1263,244,1263.2,244.3,1263.3,244.5z"/>
	<polygon class="st4" points="1222.1,282.9 1234.6,277.6 1247.1,282.9 1247.1,284.1 1234.6,278.8 1222.1,284.1 	"/>
</g>
<g id="Option_3" class="st0">
	<polygon class="st6" points="1299.4,220.5 1253.4,200.9 1273.2,230.6 	"/>
	<polygon class="st6" points="1325.5,220.5 1371.5,200.9 1351.7,230.6 	"/>
	<path class="st6" d="M1312.4,345.8c1.5,0,2.9-0.4,4.4-0.7c7.4-1.9,14.9-3.8,22.3-5.6c0.6-0.2,1.2-0.3,1.7-0.8
		c0.3-0.3,0.4-0.8,0.6-1.2c7.3-25.4,14.3-51.1,22.4-76.3c0.8-2.8,1.6-5.6,3-8.1c1.8-3.4,4.5-6.2,7.1-9
		c10.6-11.2,21.3-22.4,31.9-33.6c-5.6-7.5-11.2-15-16.8-22.6c-0.8-1.1-1.6-2.2-2-3.5c-1.3-4,1.7-8,3.4-11.8c3-6.7,2.5-14.4,1.9-21.7
		c-1.3-16.1-2.6-32.3-3.9-48.4c-13.4,12.9-26.7,25.8-40.1,38.8c-0.9,0.9-1.9,1.8-3.1,2.3c-1.7,0.7-3.6,0.5-5.5,0.2
		c-8.8-1.2-17.9-3-26.9-3.1c-9.3-0.2-18.5,1.8-27.7,3.1c-1.8,0.3-3.8,0.5-5.5-0.2c-1.2-0.5-2.1-1.4-3.1-2.3
		c-13.4-12.9-26.7-25.8-40.1-38.8c-1.3,16.1-2.6,32.3-3.9,48.4c-0.6,7.3-1.1,15,1.9,21.7c1.7,3.8,4.6,7.8,3.4,11.8
		c-0.4,1.3-1.2,2.4-2,3.5c-5.6,7.5-11.2,15-16.8,22.6c10.6,11.2,21.3,22.4,31.9,33.6c2.6,2.8,5.3,5.6,7.1,9c1.3,2.5,2.2,5.3,3,8.1
		c3.1,12.9,7.6,25.6,11.3,38.4c3.7,12.6,7.5,25.3,11.1,38c0.1,0.5,0.3,1,0.7,1.4c0.3,0.3,0.8,0.4,1.3,0.6c7.6,1.9,15.3,3.8,22.9,5.8
		c1.2,0.3,2.5,0.6,3.8,0.7C1312.2,345.8,1312.3,345.8,1312.4,345.8z"/>
	<polygon class="st3" points="1332.1,327.5 1312.4,319.1 1292.8,327.5 1292.8,329.4 1312.4,321 1332.1,329.4 	"/>
	<polygon class="st6" points="1221.1,258.5 1189.1,244.8 1202.8,265.5 	"/>
	<polygon class="st3" points="1243.9,332.9 1230.2,327.1 1216.5,332.9 1216.5,334.3 1230.2,328.5 1243.9,334.3 	"/>
	<path class="st6" d="M1259.2,261.2c-0.8-2.8-1.6-5.6-3-8.1c-1.8-3.4-4.5-6.2-7.1-9c-10.7-11.2-21.3-22.4-31.9-33.6
		c1.8-2.4,3.6-4.8,5.4-7.2c-3.8,0.5-7.6,1.2-11.4,1.7c-1.3,0.2-2.6,0.4-3.8-0.2c-0.8-0.3-1.5-1-2.1-1.6c-9.3-9-18.6-18-27.9-27
		c-0.9,11.2-1.8,22.5-2.7,33.7c-0.4,5.1-0.8,10.5,1.3,15.1c1.2,2.7,3.2,5.4,2.4,8.2c-0.3,0.9-0.9,1.7-1.4,2.4
		c-3.9,5.2-7.8,10.5-11.7,15.7c7.4,7.8,14.8,15.6,22.2,23.4c1.8,1.9,3.7,3.9,4.9,6.2c0.9,1.8,1.5,3.7,2.1,5.6
		c2.2,9,5.3,17.8,7.9,26.7c2.6,8.8,5.2,17.6,7.8,26.4c0.1,0.4,0.2,0.7,0.5,1c0.2,0.2,0.6,0.3,0.9,0.4c5.3,1.3,10.6,2.7,15.9,4
		c0.9,0.2,1.7,0.4,2.6,0.5c0.1,0,0.1,0,0.2,0c1,0,2-0.3,3-0.5c5.2-1.3,10.3-2.6,15.5-3.9c0.4-0.1,0.9-0.2,1.2-0.6
		c0.2-0.2,0.3-0.6,0.4-0.9c5.1-17.7,10-35.6,15.6-53.1c0.1-0.3,0.2-0.7,0.3-1C1263.7,277.6,1261.2,269.5,1259.2,261.2z"/>
	<path class="st6" d="M1259,261.2c-0.8-2.8-1.6-5.6-3-8.1c-0.3-0.5-0.5-1-0.8-1.4l-15.9,6.8l18.2,7l1.8-2.8
		C1259.2,262.2,1259.1,261.7,1259,261.2z"/>
	<polygon class="st6" points="1404,258.5 1436,244.8 1422.3,265.5 	"/>
	<polygon class="st3" points="1381.2,332.9 1394.9,327.1 1408.6,332.9 1408.6,334.3 1394.9,328.5 1381.2,334.3 	"/>
	<path class="st6" d="M1365.9,261.2c0.8-2.8,1.6-5.6,3-8.1c1.8-3.4,4.5-6.2,7.1-9c10.7-11.2,21.3-22.4,31.9-33.6
		c-1.8-2.4-3.6-4.8-5.4-7.2c3.8,0.5,7.6,1.2,11.4,1.7c1.3,0.2,2.6,0.4,3.8-0.2c0.8-0.3,1.5-1,2.1-1.6c9.3-9,18.6-18,27.9-27
		c0.9,11.2,1.8,22.5,2.7,33.7c0.4,5.1,0.8,10.5-1.3,15.1c-1.2,2.7-3.2,5.4-2.4,8.2c0.3,0.9,0.9,1.7,1.4,2.4
		c3.9,5.2,7.8,10.5,11.7,15.7c-7.4,7.8-14.8,15.6-22.2,23.4c-1.8,1.9-3.7,3.9-4.9,6.2c-0.9,1.8-1.5,3.7-2.1,5.6
		c-2.2,9-5.3,17.8-7.9,26.7c-2.6,8.8-5.2,17.6-7.8,26.4c-0.1,0.4-0.2,0.7-0.5,1c-0.2,0.2-0.6,0.3-0.9,0.4c-5.3,1.3-10.6,2.7-15.9,4
		c-0.9,0.2-1.7,0.4-2.6,0.5c-0.1,0-0.1,0-0.2,0c-1,0-2-0.3-3-0.5c-5.2-1.3-10.3-2.6-15.5-3.9c-0.4-0.1-0.9-0.2-1.2-0.6
		c-0.2-0.2-0.3-0.6-0.4-0.9c-5.1-17.7-10-35.6-15.6-53.1c-0.1-0.3-0.2-0.7-0.3-1C1361.4,277.6,1363.9,269.5,1365.9,261.2z"/>
	<path class="st6" d="M1366.1,261.2c0.8-2.8,1.6-5.6,3-8.1c0.3-0.5,0.5-1,0.8-1.4l15.9,6.8l-18.2,7l-1.8-2.8
		C1365.9,262.2,1366,261.7,1366.1,261.2z"/>
</g>
<g id="The_IAN" class="st0">
	<polygon class="st6" points="1165.5,159.7 1132.2,145.6 1146.5,167.1 	"/>
	<polygon class="st3" points="1190.1,237.1 1175.9,231.1 1161.7,237.1 1161.7,238.5 1175.9,232.4 1190.1,238.5 	"/>
	<g class="st1">
		<polygon class="st7" points="1227.3,154.6 1189.4,138.5 1205.7,163 		"/>
		<polygon class="st7" points="1248.9,154.6 1286.8,138.5 1270.5,163 		"/>
		<path class="st7" d="M1238.1,258c1.2,0,2.4-0.3,3.6-0.6c6.1-1.5,12.3-3.1,18.4-4.6c0.5-0.1,1-0.3,1.4-0.7c0.2-0.3,0.4-0.7,0.5-1
			c6-21,11.8-42.2,18.5-62.9c0.7-2.3,1.4-4.6,2.5-6.7c1.5-2.8,3.7-5.1,5.8-7.4c8.8-9.2,17.6-18.5,26.3-27.7
			c-4.6-6.2-9.2-12.4-13.8-18.6c-0.7-0.9-1.3-1.8-1.7-2.9c-1-3.3,1.4-6.6,2.8-9.7c2.5-5.5,2-11.9,1.6-17.9
			c-1.1-13.3-2.2-26.6-3.2-39.9c-11,10.7-22,21.3-33,32c-0.8,0.7-1.6,1.5-2.5,1.9c-1.4,0.6-3,0.4-4.5,0.2c-7.2-1-14.7-2.4-22.2-2.6
			c-7.6-0.2-15.3,1.5-22.8,2.6c-1.5,0.2-3.1,0.4-4.5-0.2c-1-0.4-1.8-1.2-2.5-1.9c-11-10.7-22-21.3-33-32
			c-1.1,13.3-2.2,26.6-3.2,39.9c-0.5,6-0.9,12.4,1.6,17.9c1.4,3.1,3.8,6.4,2.8,9.7c-0.3,1.1-1,2-1.7,2.9
			c-4.6,6.2-9.2,12.4-13.8,18.6c8.8,9.2,17.6,18.5,26.3,27.7c2.2,2.3,4.4,4.6,5.8,7.4c1.1,2.1,1.8,4.4,2.5,6.7
			c2.6,10.7,6.2,21.1,9.3,31.6c3.1,10.4,6.2,20.8,9.2,31.3c0.1,0.4,0.3,0.9,0.6,1.2c0.3,0.3,0.7,0.4,1,0.5
			c6.3,1.6,12.6,3.2,18.9,4.8c1,0.3,2.1,0.5,3.1,0.5C1238,258,1238,258,1238.1,258z"/>
		<polygon class="st2" points="1254.3,242.9 1238.1,236 1221.9,242.9 1221.9,244.5 1238.1,237.6 1254.3,244.5 		"/>
	</g>
	<g class="st1">
		<path class="st7" d="M1201.6,219.5c-3.1-10.5-6.8-21-9.3-31.6c-0.7-2.3-1.4-4.6-2.5-6.7c-1.5-2.8-3.7-5.1-5.8-7.4
			c-8.8-9.2-17.6-18.5-26.3-27.7c4.6-6.2,9.2-12.4,13.8-18.6c0.7-0.9,1.3-1.8,1.7-2.9c1-3.3-1.4-6.6-2.8-9.7
			c-1.7-3.9-2-8.2-1.9-12.5c-4.4,0.5-8.9,1.3-13.3,1.9c-1.3,0.2-2.7,0.4-4-0.2c-0.9-0.4-1.5-1-2.2-1.7c-9.7-9.3-19.3-18.7-29-28
			c-0.9,11.7-1.9,23.3-2.8,35c-0.4,5.3-0.8,10.9,1.4,15.7c1.2,2.8,3.4,5.6,2.4,8.5c-0.3,0.9-0.9,1.7-1.5,2.5
			c-4,5.4-8.1,10.9-12.1,16.3c7.7,8.1,15.4,16.2,23.1,24.3c1.9,2,3.8,4,5.1,6.5c1,1.8,1.6,3.9,2.2,5.9c2.3,9.3,5.5,18.5,8.2,27.7
			c2.7,9.1,5.4,18.3,8.1,27.4c0.1,0.4,0.2,0.8,0.5,1c0.2,0.2,0.6,0.3,0.9,0.4c5.5,1.4,11,2.8,16.5,4.2c0.9,0.2,1.8,0.5,2.7,0.5
			c0.1,0,0.1,0,0.2,0c1.1,0,2.1-0.3,3.2-0.5c5.4-1.4,10.7-2.7,16.1-4.1c0.4-0.1,0.9-0.2,1.2-0.6c0.2-0.3,0.3-0.6,0.4-0.9
			c2.2-7.5,4.3-15.1,6.5-22.6C1202,220.9,1201.8,220.2,1201.6,219.5z"/>
	</g>
	<polygon class="st6" points="1310.5,159.7 1343.7,145.6 1329.4,167.1 	"/>
	<polygon class="st3" points="1286.8,237.1 1301,231.1 1315.2,237.1 1315.2,238.5 1301,232.4 1286.8,238.5 	"/>
	<g class="st1">
		<path class="st7" d="M1274.3,219.5c3.1-10.5,6.8-21,9.3-31.6c0.7-2.3,1.4-4.6,2.5-6.7c1.5-2.8,3.7-5.1,5.8-7.4
			c8.8-9.2,17.6-18.5,26.3-27.7c-4.6-6.2-9.2-12.4-13.8-18.6c-0.7-0.9-1.3-1.8-1.7-2.9c-1-3.3,1.4-6.6,2.8-9.7
			c1.7-3.9,2-8.2,1.9-12.5c4.4,0.5,8.9,1.3,13.3,1.9c1.3,0.2,2.7,0.4,4-0.2c0.9-0.4,1.5-1,2.2-1.7c9.7-9.3,19.3-18.7,29-28
			c0.9,11.7,1.9,23.3,2.8,35c0.4,5.3,0.8,10.9-1.4,15.7c-1.2,2.8-3.4,5.6-2.4,8.5c0.3,0.9,0.9,1.7,1.5,2.5c4,5.4,8.1,10.9,12.1,16.3
			c-7.7,8.1-15.4,16.2-23.1,24.3c-1.9,2-3.8,4-5.1,6.5c-1,1.8-1.6,3.9-2.2,5.9c-2.3,9.3-5.5,18.5-8.2,27.7
			c-2.7,9.1-5.4,18.3-8.1,27.4c-0.1,0.4-0.2,0.8-0.5,1c-0.2,0.2-0.6,0.3-0.9,0.4c-5.5,1.4-11,2.8-16.5,4.2c-0.9,0.2-1.8,0.5-2.7,0.5
			c-0.1,0-0.1,0-0.2,0c-1.1,0-2.1-0.3-3.2-0.5c-5.4-1.4-10.7-2.7-16.1-4.1c-0.4-0.1-0.9-0.2-1.2-0.6c-0.2-0.3-0.3-0.6-0.4-0.9
			c-2.2-7.5-4.3-15.1-6.5-22.6C1273.9,220.9,1274.1,220.2,1274.3,219.5z"/>
	</g>
</g>
<g id="Layer_9" class="st0">
	<polygon class="st3" points="1177.7,60.9 1215.3,53.4 1196.4,71.7 	"/>
	<path class="st3" d="M1261.4,121.1c8-7.8,4.4-4.6,8.5-8.2c3.7-3.2,7.4-6.4,11.2-9.6c4.8-4,9.6-8,14.4-12c-0.1-0.3,5.3-4.3,5.9-4.9
		c0.8-0.8,1.5-1.6,2.2-2.5c-1.4-1.4-3-2.9-4.4-4.2c-8.7-8.4-4.8-5-9.1-8.7c-3.7-3.2-7.4-6.4-11.2-9.6c-4.8-4-9.6-8-14.4-12
		c0.1-0.3-5.3-4.3-5.9-4.9c-4.5-4.5-7.5-11-10.8-16.4c-3.5-5.6-7-11.2-10.5-16.8c-4.4-7-8.8-14.1-13.2-21.1l-8.5,49.2l-46.9,8.7
		l-2.1,8.4c-0.6,0.1-1.2,0.3-1.8,0.4c-5.4,1.1-10.8,2.3-16.2,3.4c-7.4,1.6-14.8,3.1-22.2,4.7c-3.1,0.7-6.2,1.3-9.3,2
		c-1.2,0.2-2.3,0.5-3.5,0.7c-1,0.2-2.7,0.9-3.7,0.6c-0.5-0.2-0.9-0.5-1.4-0.8c-0.6-0.4-1.2-0.9-1.8-1.3c-0.2-0.1-0.4-0.3-0.6-0.3
		s-0.4,0.1-0.6,0.1c-3.6,1.5-7.2,3-10.8,4.6c-0.1,0-0.2,0.1-0.2,0.1c-0.1,0.1,0,0.2,0,0.3c0.2,2.1,0.4,4.2,0.6,6.3
		c0,0.6,0.1,1.1,0.3,1.6c0.2,0.5,0.5,1,0.7,1.5c0.7,1.2,1.5,2.5,2.2,3.7c0.2,0.3,1.2,2.5,1.5,2.6c0.6,0.1,1.2,0.1,1.8,0.2l4.9,10.3
		l4-9.3c0.7,0.1,1.4,0.2,2.2,0.3c0.9,3.1,3.1,10.1,3.2,10c0.2-0.1,2.9-6.1,4.3-9.1c0.7,0.1,1.3,0.2,2,0.2l2.8,9.4l4.7-8.5
		c0.4,0,0.8,0.1,1.2,0.1l3.3,8.3l5.1-7.3c0.5,0.1,1,0.1,1.6,0.2l3.6,7.2l3.8-6.3c4.2,0.5,8.4,1,12.6,1.5c0.1,0,0.2,0,0.3,0.1
		c0.1,0.1,0.1,0.3,0.1,0.4c0,3.7,0.1,7.4,0.1,11c0,0.1,0,0.3-0.1,0.4c-0.1,0.1-0.2,0.1-0.3,0.1c-3.5,0.5-6.9,1.1-10.4,1.6l-3.2-6.4
		l-3,7.4c-0.9,0.1-1.7,0.3-2.6,0.4l-3-7.8l-4.1,8.9c-0.8,0.1-1.6,0.2-2.4,0.4l-2.7-9.3l-3.7,10.3c-0.6,0.1-1.2,0.2-1.9,0.3l-3.3-10
		l-3.4,10.9c-0.5,0.1-1,0.1-1.5,0.2l-4.7-10.3l-2.9,11.4c-0.2,0-0.4,0.1-0.6,0.1c-0.3,0.1-0.5,0.1-0.7,0.3c-0.1,0.2-0.2,0.4-0.3,0.6
		c-0.9,3.8-0.8,7.9,0.1,11.7c0,0.2,0.1,0.3,0.2,0.4c0.1,0.1,0.3,0.1,0.5,0.1c12.4,0.2,24.8,0.4,37.1,0.6c6.6,0.1,13.2,0.1,19.8,0.1
		c9.1,0,18.1,2.3,26.8,4.5l32.6-6l9.4-50.6L1261.4,121.1z"/>
	<polygon class="st3" points="1189.4,151.2 1227.1,143.7 1208.2,162 	"/>
	<polygon class="st3" points="1230,223.3 1254.4,199.1 1244.2,173.4 1246.2,173.4 1256.7,199.6 1232.5,223.8 1231.3,225 1229.3,224 
			"/>
	<polygon class="st3" points="1382.2,105.1 1344.5,97.7 1363.4,116 	"/>
	<polygon class="st3" points="1341.6,177.3 1317.3,153.1 1327.4,127.4 1325.5,127.4 1314.9,153.6 1339.1,177.8 1340.4,178.9 
		1342.4,177.9 	"/>
	<path class="st3" d="M1466.7,113.8c0-0.1-0.1-0.1-0.2-0.1c-3.6-1.5-7.2-3-10.8-4.6c-0.2-0.1-0.4-0.2-0.6-0.1
		c-0.2,0-0.4,0.2-0.6,0.3c-0.6,0.4-1.2,0.9-1.8,1.3c-0.4,0.3-0.9,0.6-1.4,0.8c-1,0.3-2.6-0.4-3.7-0.6c-1.2-0.2-2.3-0.5-3.5-0.7
		c-3.1-0.7-6.2-1.3-9.3-2c-7.4-1.6-14.8-3.1-22.2-4.7c-5.4-1.1-10.8-2.3-16.2-3.4c-0.6-0.1-1.2-0.3-1.8-0.4l-2.1-8.4l-46.9-8.7
		l-8.5-49.2c-4.4,7-8.8,14.1-13.2,21.1c-3.5,5.6-7,11.2-10.5,16.8c-3.4,5.4-6.3,11.9-10.8,16.4c-0.6,0.6-6,4.7-5.9,4.9
		c-4.8,4-9.6,8-14.4,12c-3.8,3.1-7.5,6.4-11.2,9.6c-4.2,3.6-0.5,0.4-8.5,8.2c2.1,3.7,4.4,7.4,7.3,10.3c0.6,0.6,6,4.7,5.9,4.9
		c4.8,4,9.6,8,14.4,12c3.8,3.1,7.5,6.4,11.2,9.6c4.3,3.7,0.3,0.3,9.1,8.7c3,2.9,6.9,6.4,7.9,7.9c3.5,5.3,7.4,11.3,11.6,17.7
		c1.1-1.1,1.9-2,2.7-2.8c2.9-2.7,6.9-5.1,10.3-7.3c0.9-0.6,1.7-1,2.7-1.4c1.4-0.6,2.9-1,4.3-1.3c6-1.5,12-3.1,18-4.6
		c9.5-2.4,19.3-5.1,29.2-5.1c6.6,0,13.2,0,19.8-0.1c12.4-0.1,24.8-0.4,37.1-0.6c0.2,0,0.4,0,0.5-0.1s0.2-0.3,0.2-0.4
		c0.9-3.8,0.9-7.9,0.1-11.7c0-0.2-0.1-0.4-0.3-0.6c-0.2-0.2-0.5-0.3-0.7-0.3s-0.4-0.1-0.6-0.1l-2.9-11.4l-4.7,10.3
		c-0.5-0.1-1-0.1-1.5-0.2l-3.4-10.9l-3.3,10c-0.6-0.1-1.2-0.2-1.9-0.3l-3.7-10.3l-2.7,9.3c-0.8-0.1-1.6-0.2-2.4-0.4l-4.1-8.9l-3,7.8
		c-0.9-0.1-1.7-0.3-2.6-0.4l-3-7.4l-3.2,6.4c-3.5-0.5-6.9-1.1-10.4-1.6c-0.1,0-0.3,0-0.3-0.1c-0.1-0.1-0.1-0.2-0.1-0.4
		c0-3.7,0.1-7.4,0.1-11c0-0.1,0-0.3,0.1-0.4c0.1-0.1,0.2-0.1,0.3-0.1c4.2-0.5,8.4-1,12.6-1.5l3.8,6.3l3.6-7.2c0.5-0.1,1-0.1,1.6-0.2
		l5.1,7.3l3.3-8.3c0.4,0,0.8-0.1,1.2-0.1l4.7,8.5l2.8-9.4c0.7-0.1,1.3-0.2,2-0.2c1.4,3.1,4.1,9,4.3,9.1c0.2,0.1,2.3-6.9,3.3-10
		c0.7-0.1,1.4-0.2,2.2-0.3l4,9.3l4.9-10.3c0.6-0.1,1.2-0.1,1.8-0.2c0.3,0,1.3-2.3,1.5-2.6c0.7-1.2,1.5-2.5,2.2-3.7
		c0.3-0.5,0.6-1,0.7-1.5c0.2-0.5,0.2-1.1,0.3-1.6c0.2-2.1,0.4-4.2,0.6-6.3C1466.8,114,1466.8,113.9,1466.7,113.8z"/>
	<path class="st3" d="M1289.4,273.7c-3.7,1.7-14.8,4.5-18.5,6.3c-0.1,0.1-0.3,0.1-0.5,0.1c0,0,0,0-0.1,0s-0.2-0.1-0.3-0.2
		c-6.1-5.8-6.4-13.9-10.9-21.6c-3.6-6.2-9.3-10.8-14.5-15.7c-3.4-3.2-5-5.2-6.6-6.6c-2.9-2.7-6.9-5.1-10.3-7.3
		c-0.9-0.6-1.7-1-2.7-1.4c-1.4-0.6-2.9-1-4.3-1.3c-6-1.5-12-3.1-18-4.6c-9.5-2.4-19.3-5.1-29.2-5.1c-6.6,0-13.2,0-19.8-0.1
		c-12.4-0.1-24.8-0.4-37.1-0.6c-0.2,0-0.4,0-0.5-0.1s-0.2-0.3-0.2-0.4c-0.9-3.8-0.9-7.9-0.1-11.7c0-0.2,0.1-0.4,0.3-0.6
		c0.2-0.2,0.5-0.3,0.7-0.3s0.4-0.1,0.6-0.1l2.9-11.4l4.7,10.3c0.5-0.1,1-0.1,1.5-0.2l3.4-10.9l3.3,10c0.6-0.1,1.2-0.2,1.9-0.3
		l3.7-10.3l2.7,9.3c0.8-0.1,1.6-0.2,2.4-0.4l4.1-8.9l3,7.8c0.9-0.1,1.7-0.3,2.6-0.4l3-7.4l3.2,6.4c3.5-0.5,6.9-1.1,10.4-1.6
		c0.1,0,0.3,0,0.3-0.1c0.1-0.1,0.1-0.2,0.1-0.4c0-3.7-0.1-7.4-0.1-11c0-0.1,0-0.3-0.1-0.4c-0.1-0.1-0.2-0.1-0.3-0.1
		c-4.2-0.5-8.4-1-12.6-1.5l-3.8,6.3l-3.6-7.2c-0.5-0.1-1-0.1-1.6-0.2l-5.1,7.3l-3.3-8.3c-0.4,0-0.8-0.1-1.2-0.1l-4.7,8.5l-2.8-9.4
		c-0.7-0.1-1.3-0.2-2-0.2c-1.4,3.1-4.1,9-4.3,9.1c-0.2,0.1-2.3-6.9-3.3-10c-0.7-0.1-1.4-0.2-2.2-0.3l-4,9.3l-4.9-10.3
		c-0.6-0.1-1.2-0.1-1.8-0.2c-0.3,0-1.3-2.3-1.5-2.6c-0.7-1.2-1.5-2.5-2.2-3.7c-0.3-0.5-0.6-1-0.7-1.5c-0.2-0.5-0.2-1.1-0.3-1.6
		c-0.2-2.1-0.4-4.2-0.6-6.3c0-0.1,0-0.2,0-0.3s0.1-0.1,0.2-0.1c3.6-1.5,7.2-3,10.8-4.6c0.2-0.1,0.4-0.2,0.6-0.1
		c0.2,0,0.4,0.2,0.6,0.3c0.6,0.4,1.2,0.9,1.8,1.3c0.4,0.3,0.9,0.6,1.4,0.8c1,0.3,2.6-0.4,3.7-0.6c1.2-0.2,2.3-0.5,3.5-0.7
		c3.1-0.7,6.2-1.3,9.3-2c7.4-1.6,14.8-3.1,22.2-4.7c5.4-1.1,10.8-2.3,16.2-3.4c0.6-0.1,1.2-0.3,1.8-0.4l2.1-8.4l46.9-8.7l8.5-49.2
		c4.4,7,8.8,14.1,13.2,21.1c3.5,5.6,7,11.2,10.5,16.8c3.4,5.4,6.3,11.9,10.8,16.4c0.6,0.6,6,4.7,5.9,4.9c4.8,4,9.6,8,14.4,12
		c3.8,3.1,7.5,6.4,11.2,9.6c4.3,3.7,0.3,0.3,9.1,8.7c3,2.9,6.9,6.4,7.9,7.9c14.2,21.7,36.6,55.7,49,78.5
		c-0.4-0.7-46.4,9.4-49.3,10.7C1307.5,268.6,1297.9,270.1,1289.4,273.7z"/>
</g>
<g id="Layer_2" class="st0">
	<g class="st1">
		<rect x="-409.9" y="-625.5" class="st8" width="2087.8" height="1215.8"/>
		<path d="M1679.1,591.2H-411.1V-626.3h2090.2V591.2z M-408.7,589.5h2085.5V-624.6H-408.7V589.5z"/>
	</g>
</g>
<g id="Layer_13" class="st0">
	<g id="XMLID_5_" class="st1">
		<g>
			<path class="st9" d="M888.5,107.1c0.1,0.1,0,0.2,0,0.3c-0.2,2.1-0.4,4.2-0.6,6.3c0,0.6-0.1,1.1-0.3,1.6s-0.5,1-0.7,1.5
				c-0.7,1.2-1.5,2.5-2.2,3.7c-0.2,0.3-1.2,2.5-1.5,2.6c-0.6,0.1-1.2,0.1-1.8,0.2l-4.9,10.3l-4-9.3c-0.7,0.1-1.4,0.2-2.1,0.3
				c-0.9,3.1-3.1,10.1-3.3,10s-2.9-6.1-4.3-9.1c-0.7,0.1-1.3,0.2-2,0.2l-2.8,9.4l-4.7-8.5c-0.4,0-0.8,0.1-1.2,0.1l-3.3,8.3l-5.1-7.4
				c-0.5,0.1-1,0.1-1.6,0.2l-3.6,7.2l-3.8-6.3c-4.2,0.5-8.4,1-12.6,1.5c-0.1,0-0.2,0-0.3,0.1s-0.1,0.2-0.1,0.4
				c0,3.7-0.1,7.4-0.1,11.1c0,0.1,0,0.3,0.1,0.4c0.1,0.1,0.2,0.1,0.3,0.1c3.5,0.5,6.9,1.1,10.3,1.6l3.2-6.4l3,7.4
				c0.9,0.1,1.7,0.3,2.6,0.4l3-7.8l4.1,8.9c0.8,0.1,1.6,0.2,2.4,0.4l2.7-9.3l3.7,10.3c0.6,0.1,1.2,0.2,1.9,0.3l3.3-10l3.4,10.9
				c0.5,0.1,1,0.1,1.5,0.2l4.7-10.2l2.9,11.4c0.2,0,0.4,0.1,0.6,0.1c0.3,0.1,0.5,0.1,0.7,0.3c0.1,0.2,0.2,0.4,0.3,0.6
				c0.9,3.9,0.8,7.9-0.1,11.7c0,0.2-0.1,0.3-0.2,0.4c-0.1,0.1-0.3,0.1-0.5,0.1c-12.4,0.2-24.8,0.4-37.1,0.6
				c-6.6,0.1-13.2,0.1-19.8,0.1c-9.9,0-19.7,2.7-29.2,5.1c-6,1.5-12,3.1-18,4.6c-1.5,0.4-2.9,0.7-4.3,1.3c-0.9,0.4-1.8,0.9-2.7,1.4
				c-3.4,2.2-7.4,4.6-10.3,7.3c-1.5,1.4-3.2,3.4-6.6,6.6c-5.2,4.9-10.9,9.5-14.5,15.7c-4.5,7.8-4.8,15.8-10.9,21.6
				c-0.1,0.1-0.2,0.2-0.3,0.2c0,0,0,0-0.1,0c-0.2,0-0.3,0-0.5-0.1c-3-1.5-11.1-3.6-15.9-5.3c1.9-6.8,3.9-13.6,5.9-20.4
				c1.1-0.2,1.8-0.2,1.9-0.2c-0.4-0.7-0.8-1.4-1.2-2.1c2.4-7.9,4.8-15.9,7.3-23.7c0.8-2.7,1.6-5.4,2.9-7.9c1.8-3.3,4.4-6.1,6.9-8.7
				c3-3.1,5.9-6.2,8.9-9.4l21.6,21.6l1.2,1.1l2-1l-0.7-0.7l-22.7-22.5c7-7.3,13.9-14.6,20.9-21.9c-5.5-7.3-10.9-14.7-16.4-22
				c-0.8-1.1-1.6-2.1-2-3.4c-1.2-3.9,1.6-7.8,3.3-11.5c2.9-6.5,2.4-14,1.8-21.1c-0.6-7-1.1-14-1.7-20.9c0.1-0.1,0.1-0.2,0.2-0.3
				c4.4-7,8.8-14.1,13.2-21.1l8.5,49.2l46.9,8.7l2.1,8.4c0.6,0.1,1.2,0.3,1.8,0.4c5.4,1.1,10.8,2.3,16.2,3.4
				c7.4,1.6,14.8,3.1,22.2,4.7c3.1,0.7,6.2,1.3,9.3,2c1.1,0.2,2.3,0.5,3.5,0.7c1,0.2,2.7,0.9,3.7,0.6c0.5-0.2,0.9-0.5,1.4-0.8
				c0.6-0.4,1.2-0.9,1.8-1.3c0.2-0.1,0.4-0.3,0.6-0.3s0.4,0.1,0.6,0.1c3.6,1.5,7.2,3.1,10.8,4.6C888.3,107,888.4,107.1,888.5,107.1z
				 M784.2,110.3L803,99.4l-37.7-7.5L784.2,110.3z"/>
			<path class="st9" d="M744.1,105.1c5.5,7.3,10.9,14.7,16.4,22c-6.9,7.3-13.9,14.6-20.9,21.9l-1.6-1.6l10.2-25.7h-2l-10.5,26.2
				l2.6,2.6c-3,3.1-5.9,6.2-8.9,9.4c-2.6,2.7-5.2,5.4-6.9,8.7c-1.3,2.5-2.1,5.2-2.9,7.9c-2.5,7.9-5,15.8-7.3,23.7
				c-11-19.6-28.5-46.7-41.9-67.3c2-3.1,4-6.1,5.8-8.8c1-1.5,4.9-5,7.9-7.9c8.7-8.4,4.8-5,9.1-8.7c3.7-3.2,7.4-6.4,11.2-9.6
				c4.8-4,9.6-8,14.4-12c-0.1-0.2,5.3-4.3,5.9-4.9c4.5-4.5,7.5-11,10.8-16.4c3.4-5.5,6.9-11,10.3-16.5c0.6,7,1.1,14,1.7,20.9
				c0.6,7.1,1.1,14.7-1.8,21.1c-1.7,3.7-4.5,7.6-3.3,11.5C742.5,102.9,743.3,104,744.1,105.1z M707.7,146.8l19.3-29l-44.8,19.1
				L707.7,146.8z"/>
			<path class="st9" d="M748.2,121.7L738,147.4l1.6,1.6c-0.5,0.5-0.9,1-1.4,1.5l-2.6-2.6l10.5-26.2H748.2z"/>
			<path class="st9" d="M743.4,21.9c0.7,8.7,1.4,17.5,2.1,26.2c-3.4,5.5-6.9,11-10.3,16.5c-3.4,5.4-6.3,11.9-10.8,16.4
				c-0.6,0.6-6,4.7-5.9,4.9c-4.8,4-9.6,8-14.4,12c-3.8,3.1-7.5,6.4-11.2,9.6c-4.3,3.7-0.3,0.3-9.1,8.7c-3,2.9-6.9,6.4-7.9,7.9
				c-1.8,2.8-3.7,5.7-5.8,8.8c-2.1-3.2-4.1-6.2-5.9-9.1c-1-1.5-4.9-5-7.9-7.9c-8.7-8.4-4.8-5-9.1-8.7c-3.7-3.2-7.4-6.4-11.2-9.6
				c-4.8-4-9.6-8-14.4-12c0.1-0.2-5.3-4.3-5.9-4.9c-4.5-4.5-7.5-11-10.8-16.4c-3.5-5.6-7-11.2-10.5-16.9c-0.3-0.6-0.7-1.1-1-1.7
				c0.6-8,1.3-16,1.9-24c13,12.6,26,25.2,39,37.8c0.9,0.9,1.8,1.8,3,2.3c1.7,0.7,3.6,0.5,5.3,0.2c8.9-1.2,17.9-3.2,27-3.1
				c8.8,0.2,17.7,1.9,26.2,3.1c1.8,0.2,3.7,0.5,5.3-0.2c1.1-0.5,2.1-1.4,3-2.3C717.4,47.1,730.4,34.5,743.4,21.9z"/>
			<path class="st9" d="M712.2,200.2c-0.2,0.8-0.5,1.5-0.7,2.3c-6.8,1.1-30.8,6.3-41.9,9c-13.4-3.2-42.1-9.4-42.6-8.9l0,0
				c10.9-19.9,29.3-48.3,43.3-69.6C683.7,153.5,701.2,180.6,712.2,200.2z"/>
			<path class="st9" d="M711.5,202.5c-2,6.8-4,13.6-5.9,20.4c-1-0.4-1.9-0.7-2.6-1c-8.5-3.6-18.2-5.1-26.7-8.7
				c-0.6-0.3-3.1-0.9-6.7-1.8C680.8,208.8,704.7,203.6,711.5,202.5z"/>
			<path class="st9" d="M703,221.9c0.7,0.3,1.5,0.6,2.6,1c-2.7,9.3-5.3,18.6-8,27.9c-0.1,0.4-0.3,0.9-0.5,1.2
				c-0.4,0.5-1,0.6-1.6,0.8c-7.2,1.8-14.5,3.7-21.7,5.5c-1.4,0.4-2.8,0.7-4.3,0.7c-0.1,0-0.2,0-0.3,0c-1.2,0-2.5-0.3-3.7-0.6
				c-7.4-1.9-14.9-3.7-22.3-5.6c-0.4-0.1-0.9-0.2-1.2-0.6c-0.4-0.3-0.5-0.9-0.7-1.4c-2.6-9.2-5.4-18.5-8.1-27.7
				c1.7-0.6,3.2-1.1,4.2-1.5c8.5-3.6,18.2-5.1,26.7-8.7c0.6-0.2,2.6-0.8,5.6-1.5c3.6,0.9,6.1,1.5,6.7,1.8
				C684.8,216.8,694.5,218.4,703,221.9z M688.7,242.4v-1.9l-19.2-8.1l-19.2,8.1v1.9l19.2-8.2L688.7,242.4z"/>
			<path class="st9" d="M664.3,123.9c1.9,2.8,3.8,5.9,5.9,9.1c-13.9,21.4-32.4,49.8-43.3,69.6c-2.7-8.7-5.4-17.3-7.6-26.1
				c-0.8-2.7-1.6-5.4-2.9-7.9c-1.8-3.3-4.3-6.1-6.9-8.7c-2.8-2.9-5.6-5.8-8.3-8.8l3.4-3.4l-10.5-26.2h-2l10.2,25.7l-2.5,2.5
				c-7.1-7.5-14.3-15-21.4-22.5c5.5-7.3,10.9-14.7,16.4-22c0.8-1.1,1.6-2.1,2-3.4c1.2-3.9-1.6-7.8-3.3-11.5
				c-2.9-6.5-2.4-14-1.8-21.1c0.6-7.7,1.2-15.5,1.9-23.2c0.3,0.6,0.7,1.1,1,1.7c3.5,5.6,7,11.2,10.5,16.9
				c3.4,5.4,6.3,11.9,10.8,16.4c0.6,0.6,6,4.7,5.9,4.9c4.8,4,9.6,8,14.4,12c3.8,3.1,7.5,6.4,11.2,9.6c4.3,3.7,0.3,0.3,9.1,8.7
				C659.4,118.9,663.4,122.4,664.3,123.9z M631.2,146.8l25.5-9.9l-44.8-19.1L631.2,146.8z"/>
			<path class="st9" d="M669.6,211.5c-3,0.7-5,1.3-5.6,1.5c-8.5,3.6-18.2,5.1-26.7,8.7c-1,0.4-2.4,1-4.2,1.5
				c-0.9-3.1-1.8-6.2-2.8-9.3c-1.1-3.8-2.3-7.5-3.5-11.3C627.6,202.1,656.2,208.3,669.6,211.5z"/>
			<path class="st9" d="M627,202.6c1.2,3.8,2.4,7.5,3.5,11.3c0.9,3.1,1.8,6.2,2.8,9.3c-4.8,1.6-11.6,3.5-14.3,4.8
				c-0.1,0.1-0.3,0.1-0.5,0.1c0,0,0,0-0.1,0s-0.2-0.1-0.3-0.2c-6.1-5.8-6.4-13.9-10.9-21.6c-3.6-6.2-9.3-10.8-14.5-15.7
				c-3.4-3.2-5-5.2-6.6-6.6c-2.9-2.7-6.9-5.1-10.3-7.3c-0.8-0.6-1.7-1-2.7-1.4c-1.4-0.6-2.9-1-4.3-1.3c-6-1.5-12-3.1-18-4.6
				c-9.5-2.4-19.3-5.1-29.2-5.1c-6.6,0-13.2,0-19.8-0.1c-12.4-0.1-24.8-0.4-37.1-0.6c-0.2,0-0.4,0-0.5-0.1s-0.2-0.3-0.2-0.4
				c-0.9-3.8-0.9-7.9-0.1-11.7c0-0.2,0.1-0.4,0.2-0.6c0.2-0.2,0.5-0.3,0.7-0.3s0.4-0.1,0.6-0.1l2.9-11.4l4.7,10.2
				c0.5-0.1,1-0.1,1.5-0.2l3.4-10.9l3.3,10c0.6-0.1,1.2-0.2,1.9-0.3l3.7-10.3l2.7,9.3c0.8-0.1,1.6-0.2,2.4-0.4l4.1-8.9l3,7.8
				c0.9-0.1,1.7-0.3,2.6-0.4l3-7.4l3.2,6.5c3.5-0.5,6.9-1.1,10.4-1.6c0.1,0,0.3,0,0.3-0.1c0.1-0.1,0.1-0.2,0.1-0.4
				c0-3.7-0.1-7.4-0.1-11c0-0.1,0-0.3-0.1-0.4c-0.1-0.1-0.2-0.1-0.3-0.1c-4.2-0.5-8.4-1-12.6-1.5l-3.8,6.3l-3.6-7.2
				c-0.5-0.1-1-0.1-1.6-0.2l-5.1,7.4l-3.3-8.3c-0.4-0.1-0.8-0.1-1.2-0.1l-4.7,8.5l-2.8-9.4c-0.7-0.1-1.3-0.2-2-0.2
				c-1.4,3.1-4.1,9-4.3,9.1s-2.3-6.9-3.3-10c-0.7-0.1-1.4-0.2-2.2-0.2l-4,9.3l-4.9-10.3c-0.6-0.1-1.2-0.1-1.8-0.2
				c-0.3,0-1.3-2.3-1.5-2.6c-0.7-1.2-1.5-2.5-2.2-3.7c-0.3-0.5-0.6-1-0.7-1.5c-0.2-0.5-0.2-1.1-0.3-1.6c-0.2-2.1-0.4-4.2-0.6-6.3
				c0-0.1,0-0.2,0-0.3s0.1-0.1,0.2-0.1c3.6-1.5,7.2-3.1,10.8-4.6c0.2-0.1,0.4-0.1,0.6-0.1s0.4,0.1,0.6,0.3c0.6,0.4,1.2,0.9,1.8,1.3
				c0.4,0.3,0.9,0.6,1.4,0.8c1,0.3,2.6-0.4,3.7-0.6s2.3-0.5,3.5-0.7c3.1-0.7,6.2-1.3,9.3-2c7.4-1.6,14.8-3.1,22.2-4.7
				c5.4-1.1,10.8-2.3,16.1-3.4c0.6-0.1,1.2-0.3,1.8-0.4l2.1-8.4l46.9-8.7l8.5-49.2c4.1,6.5,8.1,13,12.2,19.4
				c-0.6,7.7-1.3,15.5-1.9,23.2c-0.6,7.1-1.1,14.7,1.8,21.1c1.7,3.7,4.5,7.6,3.3,11.5c-0.4,1.3-1.2,2.4-2,3.4
				c-5.4,7.3-10.9,14.7-16.4,22c7.1,7.5,14.3,15,21.4,22.5l-21.8,21.7l-0.8,0.7l2,1l1.2-1.1l20.7-20.8c2.8,2.9,5.6,5.8,8.3,8.8
				c2.6,2.7,5.2,5.4,6.9,8.7c1.3,2.5,2.1,5.2,2.9,7.9C621.6,185.2,624.3,193.9,627,202.6L627,202.6z M556.2,110l18.9-18.3l-37.7,7.5
				L556.2,110z"/>
			<path class="st9" d="M594.2,121.4l10.5,26.2l-3.4,3.4c-0.5-0.5-0.9-1-1.4-1.5l2.5-2.5l-10.2-25.7L594.2,121.4L594.2,121.4z"/>
		</g>
		<g>
			<polygon class="st2" points="537.4,99.2 575.1,91.7 556.2,110 			"/>
			<polygon class="st2" points="601.3,151.1 580.5,171.8 579.3,173 577.3,172 578.1,171.3 599.9,149.6 602.4,147.1 592.2,121.4 
				594.2,121.4 604.7,147.6 			"/>
			<path class="st2" d="M669.6,211.5c-3,0.7-5,1.3-5.6,1.5c-8.5,3.6-18.2,5.1-26.7,8.7c-1,0.4-2.4,1-4.2,1.5
				c-4.8,1.6-11.6,3.5-14.3,4.8c-0.1,0.1-0.3,0.1-0.5,0.1c0,0,0,0-0.1,0s-0.2-0.1-0.3-0.2c-6.1-5.8-6.4-13.9-10.9-21.6
				c-3.6-6.2-9.3-10.8-14.5-15.7c-3.4-3.2-5-5.2-6.6-6.6c-2.9-2.7-6.9-5.1-10.3-7.3c-0.8-0.6-1.7-1-2.7-1.4c-1.4-0.6-2.9-1-4.3-1.3
				c-6-1.5-12-3.1-18-4.6c-9.5-2.4-19.3-5.1-29.2-5.1c-6.6,0-13.2,0-19.8-0.1c-12.4-0.1-24.8-0.4-37.1-0.6c-0.2,0-0.4,0-0.5-0.1
				s-0.2-0.3-0.2-0.4c-0.9-3.8-0.9-7.9-0.1-11.7c0-0.2,0.1-0.4,0.2-0.6c0.2-0.2,0.5-0.3,0.7-0.3s0.4-0.1,0.6-0.1l2.9-11.4l4.7,10.2
				c0.5-0.1,1-0.1,1.5-0.2l3.4-10.9l3.3,10c0.6-0.1,1.2-0.2,1.9-0.3l3.7-10.3l2.7,9.3c0.8-0.1,1.6-0.2,2.4-0.4l4.1-8.9l3,7.8
				c0.9-0.1,1.7-0.3,2.6-0.4l3-7.4l3.2,6.5c3.5-0.5,6.9-1.1,10.4-1.6c0.1,0,0.3,0,0.3-0.1c0.1-0.1,0.1-0.2,0.1-0.4
				c0-3.7-0.1-7.4-0.1-11c0-0.1,0-0.3-0.1-0.4c-0.1-0.1-0.2-0.1-0.3-0.1c-4.2-0.5-8.4-1-12.6-1.5l-3.8,6.3l-3.6-7.2
				c-0.5-0.1-1-0.1-1.6-0.2l-5.1,7.4l-3.3-8.3c-0.4-0.1-0.8-0.1-1.2-0.1l-4.7,8.5l-2.8-9.4c-0.7-0.1-1.3-0.2-2-0.2
				c-1.4,3.1-4.1,9-4.3,9.1s-2.3-6.9-3.3-10c-0.7-0.1-1.4-0.2-2.2-0.2l-4,9.3l-4.9-10.3c-0.6-0.1-1.2-0.1-1.8-0.2
				c-0.3,0-1.3-2.3-1.5-2.6c-0.7-1.2-1.5-2.5-2.2-3.7c-0.3-0.5-0.6-1-0.7-1.5c-0.2-0.5-0.2-1.1-0.3-1.6c-0.2-2.1-0.4-4.2-0.6-6.3
				c0-0.1,0-0.2,0-0.3s0.1-0.1,0.2-0.1c3.6-1.5,7.2-3.1,10.8-4.6c0.2-0.1,0.4-0.1,0.6-0.1s0.4,0.1,0.6,0.3c0.6,0.4,1.2,0.9,1.8,1.3
				c0.4,0.3,0.9,0.6,1.4,0.8c1,0.3,2.6-0.4,3.7-0.6s2.3-0.5,3.5-0.7c3.1-0.7,6.2-1.3,9.3-2c7.4-1.6,14.8-3.1,22.2-4.7
				c5.4-1.1,10.8-2.3,16.1-3.4c0.6-0.1,1.2-0.3,1.8-0.4l2.1-8.4l46.9-8.7l8.5-49.2c4.1,6.5,8.1,13,12.2,19.4c0.3,0.6,0.7,1.1,1,1.7
				c3.5,5.6,7,11.2,10.5,16.9c3.4,5.4,6.3,11.9,10.8,16.4c0.6,0.6,6,4.7,5.9,4.9c4.8,4,9.6,8,14.4,12c3.8,3.1,7.5,6.4,11.2,9.6
				c4.3,3.7,0.3,0.3,9.1,8.7c3,2.9,6.9,6.4,7.9,7.9c1.9,2.8,3.8,5.9,5.9,9.1c13.4,20.6,31,47.6,41.9,67.3c0.4,0.7,0.8,1.4,1.2,2.1
				c0-0.1-0.7,0-1.9,0.2C704.7,203.6,680.8,208.8,669.6,211.5z"/>
			<polygon class="st2" points="803,99.4 765.3,92 784.2,110.3 			"/>
			<polygon class="st2" points="738.2,150.5 759.9,172.1 761.1,173.2 763.1,172.2 762.3,171.6 739.6,149 738,147.4 748.2,121.7 
				746.2,121.7 735.7,147.9 			"/>
			<path class="st2" d="M627,202.6L627,202.6c0.6-0.5,29.2,5.7,42.6,8.9c3.6,0.9,6.1,1.5,6.7,1.8c8.5,3.6,18.2,5.1,26.7,8.7
				c0.7,0.3,1.5,0.6,2.6,1c4.8,1.7,12.9,3.8,15.9,5.3c0.1,0.1,0.3,0.1,0.5,0.1c0,0,0,0,0.1,0s0.2-0.1,0.3-0.2
				c6.1-5.8,6.4-13.9,10.9-21.6c3.6-6.2,9.3-10.8,14.5-15.7c3.4-3.2,5-5.2,6.6-6.6c2.9-2.7,6.9-5.1,10.3-7.3c0.8-0.6,1.7-1,2.7-1.4
				c1.4-0.6,2.9-1,4.3-1.3c6-1.5,12-3.1,18-4.6c9.5-2.4,19.3-5.1,29.2-5.1c6.6,0,13.2,0,19.8-0.1c12.4-0.1,24.8-0.4,37.1-0.6
				c0.2,0,0.4,0,0.5-0.1s0.2-0.3,0.2-0.4c0.9-3.8,0.9-7.9,0.1-11.7c0-0.2-0.1-0.4-0.3-0.6c-0.2-0.2-0.5-0.3-0.7-0.3
				s-0.4-0.1-0.6-0.1l-2.9-11.4l-4.7,10.2c-0.5-0.1-1-0.1-1.5-0.2l-3.4-10.9l-3.3,10c-0.6-0.1-1.2-0.2-1.9-0.3l-3.7-10.3l-2.7,9.3
				c-0.8-0.1-1.6-0.2-2.4-0.4l-4.1-8.9l-3,7.8c-0.9-0.1-1.7-0.3-2.6-0.4l-3-7.4l-3.2,6.4c-3.5-0.5-6.9-1.1-10.3-1.6
				c-0.1,0-0.3-0.1-0.3-0.1c-0.1-0.1-0.1-0.2-0.1-0.4c0-3.7,0.1-7.4,0.1-11.1c0-0.1,0-0.3,0.1-0.4c0.1-0.1,0.2-0.1,0.3-0.1
				c4.2-0.5,8.4-1,12.6-1.5l3.8,6.3l3.6-7.2c0.5-0.1,1-0.1,1.6-0.2l5.1,7.4l3.3-8.3c0.4-0.1,0.8-0.1,1.2-0.1l4.7,8.5l2.8-9.4
				c0.7-0.1,1.3-0.2,2-0.2c1.4,3.1,4.1,9,4.3,9.1s2.3-6.9,3.3-10c0.7-0.1,1.4-0.2,2.1-0.3l4,9.3l4.9-10.3c0.6-0.1,1.2-0.1,1.8-0.2
				c0.3,0,1.3-2.3,1.5-2.6c0.7-1.2,1.5-2.5,2.2-3.7c0.3-0.5,0.6-0.9,0.7-1.5c0.2-0.5,0.2-1.1,0.3-1.6c0.2-2.1,0.4-4.2,0.6-6.3
				c0-0.1,0-0.2,0-0.3s-0.1-0.1-0.2-0.1c-3.6-1.5-7.2-3.1-10.8-4.6c-0.2-0.1-0.4-0.2-0.6-0.1c-0.2,0-0.4,0.2-0.6,0.3
				c-0.6,0.4-1.2,0.9-1.8,1.3c-0.4,0.3-0.9,0.6-1.4,0.8c-1,0.3-2.6-0.4-3.7-0.6c-1.2-0.2-2.3-0.5-3.5-0.7c-3.1-0.6-6.2-1.3-9.3-2
				c-7.4-1.6-14.8-3.1-22.2-4.7c-5.4-1.1-10.8-2.3-16.2-3.4c-0.6-0.1-1.2-0.2-1.8-0.4l-2.1-8.4l-46.9-8.7l-8.5-49.2
				c-4.4,7-8.8,14.1-13.2,21.1c-0.1,0.1-0.1,0.2-0.2,0.3c-3.4,5.5-6.9,11-10.3,16.5c-3.4,5.4-6.3,11.9-10.8,16.4
				c-0.6,0.6-6,4.7-5.9,4.9c-4.8,4-9.6,8-14.4,12c-3.8,3.1-7.5,6.4-11.2,9.6c-4.3,3.7-0.3,0.3-9.1,8.7c-3,2.9-6.9,6.4-7.9,7.9
				c-1.8,2.8-3.7,5.7-5.8,8.8C656.3,154.3,637.9,182.7,627,202.6"/>
			<polygon class="st2" points="656.7,136.9 611.9,117.8 631.2,146.8 			"/>
			<polygon class="st2" points="682.2,136.9 727,117.8 707.7,146.8 			"/>
			<path class="st2" d="M633.2,223.2c2.7,9.2,5.5,18.4,8.1,27.7c0.1,0.5,0.3,1,0.7,1.4c0.3,0.3,0.8,0.4,1.2,0.6
				c7.4,1.9,14.9,3.7,22.3,5.6c1.2,0.3,2.4,0.6,3.7,0.6c0.1,0,0.2,0,0.3,0c1.4,0,2.9-0.4,4.3-0.7c7.2-1.8,14.5-3.7,21.7-5.5
				c0.6-0.1,1.2-0.3,1.6-0.8c0.3-0.3,0.4-0.8,0.5-1.2c2.7-9.3,5.3-18.6,8-27.9c1.9-6.8,3.9-13.6,5.9-20.4c0.2-0.8,0.4-1.5,0.7-2.3
				c2.4-7.9,4.8-15.9,7.3-23.7c0.8-2.7,1.6-5.4,2.9-7.9c1.8-3.3,4.4-6.1,6.9-8.7c3-3.1,5.9-6.2,8.9-9.4c0.5-0.5,0.9-1,1.4-1.5
				c7-7.3,13.9-14.6,20.9-21.9c-5.5-7.3-10.9-14.7-16.4-22c-0.8-1.1-1.6-2.1-2-3.4c-1.2-3.9,1.6-7.8,3.3-11.5
				c2.9-6.5,2.4-14,1.8-21.1c-0.6-7-1.1-14-1.7-20.9c-0.7-8.7-1.4-17.5-2.1-26.2c-13,12.6-26,25.2-39,37.8c-0.9,0.9-1.8,1.8-3,2.3
				c-1.7,0.7-3.6,0.5-5.3,0.2c-8.6-1.2-17.4-2.9-26.2-3.1c-9-0.2-18,1.8-27,3.1c-1.8,0.2-3.7,0.5-5.3-0.2c-1.1-0.5-2.1-1.4-3-2.3
				c-13-12.6-26-25.2-39-37.8c-0.6,8-1.3,16-1.9,24c-0.6,7.7-1.3,15.5-1.9,23.2c-0.6,7.1-1.1,14.7,1.8,21.1
				c1.7,3.7,4.5,7.6,3.3,11.5c-0.4,1.3-1.2,2.4-2,3.4c-5.4,7.3-10.9,14.7-16.4,22c7.1,7.5,14.3,15,21.4,22.5c0.5,0.5,0.9,1,1.4,1.5
				c2.8,2.9,5.6,5.8,8.3,8.8c2.6,2.7,5.2,5.4,6.9,8.7c1.3,2.5,2.1,5.2,2.9,7.9c2.1,8.8,4.9,17.4,7.6,26.1l0,0
				c1.2,3.8,2.4,7.5,3.5,11.3C631.4,217,632.3,220.1,633.2,223.2z"/>
			<polygon class="st2" points="688.7,240.5 669.5,232.4 650.3,240.5 650.3,242.4 669.5,234.2 688.7,242.4 			"/>
		</g>
	</g>
	<polygon class="st3" points="-143.2,191.1 -105.6,183.6 -124.5,201.9 	"/>
	<polygon class="st3" points="-102.6,263.2 -78.3,239 -88.5,213.3 -86.5,213.3 -76,239.5 -100.2,263.7 -101.4,264.9 -103.4,263.9 	
		"/>
	<path class="st3" d="M-43.3,313.6c-3.7,1.7-14.8,4.5-18.5,6.3c-0.1,0.1-0.3,0.1-0.5,0.1c0,0,0,0-0.1,0s-0.2-0.1-0.3-0.2
		c-6.1-5.8-6.4-13.9-10.9-21.6c-3.6-6.2-9.3-10.8-14.5-15.7c-3.4-3.2-5-5.2-6.6-6.6c-2.9-2.7-6.9-5.1-10.3-7.3
		c-0.9-0.6-1.7-1-2.7-1.4c-1.4-0.6-2.9-1-4.3-1.3c-6-1.5-12-3.1-18-4.6c-9.5-2.4-19.3-5.1-29.2-5.1c-6.6,0-13.2,0-19.8-0.1
		c-12.4-0.1-24.8-0.4-37.1-0.6c-0.2,0-0.4,0-0.5-0.1s-0.2-0.3-0.2-0.4c-0.9-3.8-0.9-7.9-0.1-11.7c0-0.2,0.1-0.4,0.3-0.6
		s0.5-0.3,0.7-0.3s0.4-0.1,0.6-0.1l2.9-11.4l4.7,10.3c0.5-0.1,1-0.1,1.5-0.2l3.4-10.9l3.3,10c0.6-0.1,1.2-0.2,1.9-0.3l3.7-10.3
		l2.7,9.3c0.8-0.1,1.6-0.2,2.4-0.4l4.1-8.9l3,7.8c0.9-0.1,1.7-0.3,2.6-0.4l3-7.4l3.2,6.4c3.5-0.5,6.9-1.1,10.4-1.6
		c0.1,0,0.3,0,0.3-0.1c0.1-0.1,0.1-0.2,0.1-0.4c0-3.7-0.1-7.4-0.1-11c0-0.1,0-0.3-0.1-0.4c-0.1-0.1-0.2-0.1-0.3-0.1
		c-4.2-0.5-8.4-1-12.6-1.5l-3.8,6.3l-3.6-7.2c-0.5-0.1-1-0.1-1.6-0.2l-5.1,7.3l-3.3-8.3c-0.4,0-0.8-0.1-1.2-0.1l-4.7,8.5l-2.8-9.4
		c-0.7-0.1-1.3-0.2-2-0.2c-1.4,3.1-4.1,9-4.3,9.1s-2.3-6.9-3.3-10c-0.7-0.1-1.4-0.2-2.2-0.3l-4,9.3l-4.9-10.3
		c-0.6-0.1-1.2-0.1-1.8-0.2c-0.3,0-1.3-2.3-1.5-2.6c-0.7-1.2-1.5-2.5-2.2-3.7c-0.3-0.5-0.6-1-0.7-1.5c-0.2-0.5-0.2-1.1-0.3-1.6
		c-0.2-2.1-0.4-4.2-0.6-6.3c0-0.1,0-0.2,0-0.3s0.1-0.1,0.2-0.1c3.6-1.5,7.2-3,10.8-4.6c0.2-0.1,0.4-0.2,0.6-0.1
		c0.2,0,0.4,0.2,0.6,0.3c0.6,0.4,1.2,0.9,1.8,1.3c0.4,0.3,0.9,0.6,1.4,0.8c1,0.3,2.6-0.4,3.7-0.6c1.2-0.2,2.3-0.5,3.5-0.7
		c3.1-0.7,6.2-1.3,9.3-2c7.4-1.6,14.8-3.1,22.2-4.7c5.4-1.1,10.8-2.3,16.2-3.4c0.6-0.1,1.2-0.3,1.8-0.4l2.1-8.4l46.9-8.7l8.5-49.2
		c4.4,7,8.8,14.1,13.2,21.1c3.5,5.6,7,11.2,10.5,16.8c3.4,5.4,6.3,11.9,10.8,16.4c0.6,0.6,6,4.7,5.9,4.9c4.8,4,9.6,8,14.4,12
		c3.8,3.1,7.5,6.4,11.2,9.6c4.3,3.7,0.3,0.3,9.1,8.7c3,2.9,6.9,6.4,7.9,7.9c14.2,21.7,36.6,55.7,49,78.5
		c-0.4-0.7-46.4,9.4-49.3,10.7C-25.1,308.5-34.8,310-43.3,313.6z"/>
	<polygon class="st3" points="122.3,191.3 84.6,183.9 103.5,202.2 	"/>
	<polygon class="st3" points="81.6,263.5 57.3,239.3 67.5,213.6 65.5,213.6 55,239.8 79.2,264 80.4,265.1 82.4,264.1 	"/>
	<path class="st3" d="M22.3,313.8c3.7,1.7,14.8,4.5,18.5,6.3c0.1,0.1,0.3,0.1,0.5,0.1c0,0,0,0,0.1,0s0.2-0.1,0.3-0.2
		c6.1-5.8,6.4-13.9,10.9-21.6c3.6-6.2,9.3-10.8,14.5-15.7c3.4-3.2,5-5.2,6.6-6.6c2.9-2.7,6.9-5.1,10.3-7.3c0.9-0.6,1.7-1,2.7-1.4
		c1.4-0.6,2.9-1,4.3-1.3c6-1.5,12-3.1,18-4.6c9.5-2.4,19.3-5.1,29.2-5.1c6.6,0,13.2,0,19.8-0.1c12.4-0.1,24.8-0.4,37.1-0.6
		c0.2,0,0.4,0,0.5-0.1s0.2-0.3,0.2-0.4c0.9-3.8,0.9-7.9,0.1-11.7c0-0.2-0.1-0.4-0.3-0.6s-0.5-0.3-0.7-0.3s-0.4-0.1-0.6-0.1
		l-2.9-11.4l-4.7,10.3c-0.5-0.1-1-0.1-1.5-0.2l-3.4-10.9l-3.3,10c-0.6-0.1-1.2-0.2-1.9-0.3l-3.7-10.3l-2.7,9.3
		c-0.8-0.1-1.6-0.2-2.4-0.4l-4.1-8.9l-3,7.8c-0.9-0.1-1.7-0.3-2.6-0.4l-3-7.4l-3.2,6.4c-3.5-0.5-6.9-1.1-10.4-1.6
		c-0.1,0-0.3,0-0.3-0.1c-0.1-0.1-0.1-0.2-0.1-0.4c0-3.7,0.1-7.4,0.1-11c0-0.1,0-0.3,0.1-0.4c0.1-0.1,0.2-0.1,0.3-0.1
		c4.2-0.5,8.4-1,12.6-1.5l3.8,6.3l3.6-7.2c0.5-0.1,1-0.1,1.6-0.2l5.1,7.3l3.3-8.3c0.4,0,0.8-0.1,1.2-0.1l4.7,8.5l2.8-9.4
		c0.7-0.1,1.3-0.2,2-0.2c1.4,3.1,4.1,9,4.3,9.1s2.3-6.9,3.3-10c0.7-0.1,1.4-0.2,2.2-0.3l4,9.3l4.9-10.3c0.6-0.1,1.2-0.1,1.8-0.2
		c0.3,0,1.3-2.3,1.5-2.6c0.7-1.2,1.5-2.5,2.2-3.7c0.3-0.5,0.6-1,0.7-1.5c0.2-0.5,0.2-1.1,0.3-1.6c0.2-2.1,0.4-4.2,0.6-6.3
		c0-0.1,0-0.2,0-0.3s-0.1-0.1-0.2-0.1c-3.6-1.5-7.2-3-10.8-4.6c-0.2-0.1-0.4-0.2-0.6-0.1c-0.2,0-0.4,0.2-0.6,0.3
		c-0.6,0.4-1.2,0.9-1.8,1.3c-0.4,0.3-0.9,0.6-1.4,0.8c-1,0.3-2.6-0.4-3.7-0.6c-1.2-0.2-2.3-0.5-3.5-0.7c-3.1-0.7-6.2-1.3-9.3-2
		c-7.4-1.6-14.8-3.1-22.2-4.7c-5.4-1.1-10.8-2.3-16.2-3.4c-0.6-0.1-1.2-0.3-1.8-0.4l-2.1-8.4L87,168l-8.5-49.2
		c-4.4,7-8.8,14.1-13.2,21.1c-3.5,5.6-7,11.2-10.5,16.8c-3.4,5.4-6.3,11.9-10.8,16.4c-0.6,0.6-6,4.7-5.9,4.9c-4.8,4-9.6,8-14.4,12
		c-3.8,3.1-7.5,6.4-11.2,9.6c-4.3,3.7-0.3,0.3-9.1,8.7c-3,2.9-6.9,6.4-7.9,7.9c-14.2,21.7-36.6,55.7-49,78.5
		c0.4-0.7,46.4,9.4,49.3,10.7C4.2,308.7,13.8,310.3,22.3,313.8z"/>
	<g id="XMLID_8_" class="st1">
		<g>
			<polygon class="st2" points="-24,228.8 -68.8,209.7 -49.5,238.7 			"/>
			<polygon class="st2" points="1.5,228.8 46.3,209.7 27.1,238.7 			"/>
			<path class="st2" d="M-11.2,350.9c1.4,0,2.9-0.4,4.3-0.7c7.2-1.8,14.5-3.7,21.7-5.5c0.6-0.2,1.2-0.3,1.6-0.8
				c0.3-0.3,0.4-0.8,0.5-1.2c7.1-24.8,14-49.8,21.9-74.4c0.8-2.7,1.6-5.4,2.9-7.9c1.8-3.3,4.4-6.1,6.9-8.7
				c10.4-10.9,20.8-21.8,31.1-32.8c-5.5-7.3-10.9-14.7-16.4-22c-0.8-1.1-1.6-2.1-2-3.4c-1.2-3.9,1.6-7.7,3.3-11.5
				c2.9-6.5,2.4-14,1.8-21.2c-1.3-15.7-2.5-31.4-3.8-47.2c-13,12.6-26,25.2-39,37.8c-0.9,0.9-1.8,1.8-3,2.3
				c-1.7,0.7-3.6,0.5-5.3,0.2c-8.6-1.2-17.4-2.9-26.2-3.1c-9-0.2-18,1.8-27,3.1c-1.8,0.2-3.7,0.5-5.3-0.2c-1.1-0.5-2.1-1.4-3-2.3
				c-13-12.6-26-25.2-39-37.8c-1.3,15.7-2.6,31.4-3.8,47.2c-0.6,7.1-1.1,14.7,1.8,21.2c1.7,3.7,4.5,7.6,3.3,11.5
				c-0.4,1.3-1.2,2.4-2,3.4c-5.5,7.3-10.9,14.7-16.4,22c10.4,10.9,20.8,21.8,31.1,32.8c2.6,2.7,5.2,5.4,6.9,8.7
				c1.3,2.5,2.1,5.2,2.9,7.9c3,12.6,7.4,25,11,37.4c3.6,12.3,7.3,24.6,10.9,37c0.1,0.5,0.3,1,0.7,1.4c0.3,0.3,0.8,0.4,1.2,0.5
				c7.4,1.9,14.9,3.7,22.3,5.6c1.2,0.3,2.4,0.6,3.7,0.6C-11.4,350.9-11.3,350.9-11.2,350.9z"/>
		</g>
	</g>
	<polygon class="st3" points="8,332.4 -11.2,324.3 -30.4,332.4 -30.4,334.2 -11.2,326.1 8,334.2 	"/>
</g>
<g id="Layer_11">
	<g id="XMLID_7_">
		<g>
			<path class="st10" d="M444.2,103.3l22.6,21.9l22.4-13L444.2,103.3z M421.5,138.7L408.9,170l28.9,28.9l1.5,1.4l2.4-1.2l-0.9-0.8
				l-29-28.8l12.1-30.7L421.5,138.7L421.5,138.7z M445.7,85.2l56,10.4l2.6,10c0.7,0.2,1.4,0.3,2.2,0.5c6.4,1.4,12.9,2.7,19.3,4.1
				c8.8,1.9,17.7,3.7,26.5,5.6c3.7,0.8,7.4,1.6,11.1,2.3c1.4,0.3,2.7,0.6,4.1,0.9c1.2,0.3,3.2,1.1,4.4,0.7c0.6-0.2,1.1-0.6,1.6-0.9
				c0.7-0.5,1.5-1.1,2.2-1.6c0.2-0.2,0.4-0.3,0.7-0.3c0.2,0,0.5,0.1,0.7,0.2c4.3,1.8,8.6,3.6,12.9,5.5c0.1,0,0.2,0.1,0.3,0.2
				s0.1,0.2,0,0.3c-0.2,2.5-0.5,5-0.7,7.5c-0.1,0.7-0.1,1.3-0.3,2c-0.2,0.6-0.5,1.2-0.9,1.8c-0.9,1.5-1.8,3-2.6,4.4
				c-0.2,0.4-1.4,3-1.8,3.1c-0.7,0.1-1.4,0.2-2.1,0.3l-5.9,12.3l-4.8-11.1c-0.9,0.1-1.7,0.2-2.6,0.3c-1.1,3.7-3.6,12.1-3.9,12
				c-0.2-0.1-3.4-7.2-5.1-10.9c-0.8,0.1-1.6,0.2-2.4,0.3l-3.3,11.2l-5.6-10.1c-0.5,0.1-1,0.1-1.5,0.2l-3.9,10l-6-8.8
				c-0.6,0.1-1.2,0.2-1.9,0.2l-4.3,8.5l-4.5-7.5c-5,0.6-10,1.2-15,1.8c-0.1,0-0.3,0-0.4,0.1c-0.1,0.1-0.1,0.3-0.1,0.5
				c-0.1,4.4-0.1,8.8-0.1,13.2c0,0.1,0,0.3,0.1,0.4c0.1,0.1,0.3,0.1,0.4,0.2c4.1,0.6,8.2,1.3,12.4,1.9l3.9-7.7l3.6,8.9
				c1,0.2,2,0.3,3.1,0.5l3.5-9.3l4.9,10.7c0.9,0.1,1.9,0.3,2.8,0.4l3.2-11.1l4.4,12.3c0.7,0.1,1.5,0.2,2.2,0.3l4-11.9l4.1,13
				c0.6,0.1,1.2,0.1,1.8,0.2l5.6-12.2l3.4,13.5c0.2,0.1,0.5,0.1,0.7,0.1c0.3,0.1,0.6,0.1,0.9,0.4c0.2,0.2,0.2,0.5,0.3,0.7
				c1,4.6,1,9.4-0.1,14c0,0.2-0.1,0.4-0.2,0.5c-0.2,0.1-0.4,0.1-0.6,0.1c-14.8,0.2-29.5,0.5-44.3,0.7c-7.9,0.1-15.7,0.1-23.6,0.2
				c-11.8,0-23.5,3.2-34.8,6.1c-7.2,1.8-14.3,3.7-21.5,5.5c-1.7,0.4-3.5,0.9-5.2,1.6c-1.1,0.5-2.2,1.1-3.2,1.7
				c-4.1,2.6-7.1,6.6-10.6,9.9c-2.8,2.6-5.6,5.3-8.4,7.9c-6.2,5.8-12.3,11.7-18.5,17.5c-7.3,6.9-14.6,13.9-21.9,20.8
				c-0.1,0.1-0.3,0.2-0.4,0.3c0,0,0,0-0.1,0c-0.2,0-0.4-0.1-0.6-0.1c-4.4-2.1-8.7-4.2-13.1-6.2c-8.4-3.9-16.8-7.8-25.2-11.8
				c3.3-10.8,6.6-21.6,9.9-32.4c3-9.9,5.4-20.2,10.3-29.4c3.3-6.1,7.9-10.6,12.4-15.7c3.4-3.9,7-7.5,10.4-11.3
				c8.1-8.8,16.3-17.6,24.4-26.4l-23.7-31.5c-0.2-0.3,6.3-5.1,7-5.9c5.3-5.4,8.9-13.2,12.9-19.6c4.2-6.7,8.4-13.4,12.6-20.1
				c5.2-8.4,10.5-16.8,15.7-25.2L445.7,85.2z"/>
			<path class="st10" d="M252.4,46.4c1.1,1.1,2.3,2.2,3.7,2.8c2,0.9,4.3,0.6,6.5,0.3c10.9-1.5,22-4,33-3.7
				c10.8,0.2,21.6,2.3,32.1,3.7c2.2,0.3,4.5,0.6,6.5-0.3c1.4-0.6,2.6-1.7,3.7-2.8c15.9-15.4,31.9-30.8,47.8-46.3
				c1.6,19.2,3.1,38.5,4.7,57.7c0.7,8.7,1.3,18-2.3,25.9c-2.1,4.5-5.5,9.3-4,14c0.5,1.6,1.5,2.9,2.4,4.2c6.7,9,13.4,17.9,20,26.9
				c-12.7,13.4-25.4,26.7-38.1,40.1c-3.1,3.3-6.3,6.6-8.5,10.7c-1.6,3-2.6,6.4-3.6,9.7c-9.7,30-18,60.7-26.8,91
				c-0.2,0.5-0.3,1.1-0.7,1.5c-0.5,0.6-1.3,0.8-2,1c-8.9,2.2-17.7,4.5-26.6,6.7c-1.7,0.4-3.5,0.9-5.2,0.9c-0.1,0-0.2,0-0.3,0
				c-1.5,0-3-0.4-4.5-0.8c-9.1-2.3-18.2-4.6-27.3-6.9c-0.5-0.1-1.1-0.3-1.5-0.7s-0.6-1.1-0.8-1.7c-4.3-15.1-8.9-30.2-13.3-45.3
				c-4.5-15.2-9.8-30.4-13.5-45.8c-1-3.3-2-6.6-3.6-9.7c-2.1-4.1-5.3-7.4-8.5-10.7c-12.7-13.4-25.4-26.7-38.1-40.1
				c6.7-9,13.4-18,20-26.9c1-1.3,1.9-2.6,2.4-4.2c1.5-4.8-2-9.5-4-14c-3.6-7.9-3-17.1-2.3-25.9c1.6-19.2,3.1-38.5,4.7-57.7
				C220.5,15.6,236.5,31,252.4,46.4z M295.2,258.7l-23.5,10v2.3l23.5-10l23.5,10v-2.3L295.2,258.7z M224.7,117.6l23.6,35.4
				l31.2-12.1L224.7,117.6z M310.8,141l31.2,12.1l23.6-35.4L310.8,141z"/>
			<path class="st10" d="M148.6,199l2.4,1.2l1.5-1.4l28.8-28.9l-12.6-31.2h-2.4l12.1,30.7l-29,28.8L148.6,199z M101,112.2l22.4,13
				l22.6-21.9L101,112.2z M42.1,145.8l-5.6,10.1l-3.3-11.2c-0.8-0.1-1.6-0.2-2.4-0.3c-1.7,3.7-4.9,10.7-5.1,10.9s-2.8-8.3-3.9-12
				c-0.9-0.1-1.7-0.2-2.6-0.3l-4.8,11.1l-5.8-12.3c-0.7-0.1-1.4-0.2-2.1-0.3c-0.4,0-1.6-2.7-1.8-3.1c-0.9-1.5-1.8-3-2.6-4.4
				c-0.3-0.6-0.7-1.1-0.9-1.8c-0.2-0.6-0.3-1.3-0.3-2c-0.2-2.5-0.5-5-0.7-7.5c0-0.1,0-0.2,0-0.3c0.1-0.1,0.2-0.1,0.2-0.2
				c4.3-1.8,8.6-3.6,12.9-5.5c0.2-0.1,0.4-0.2,0.7-0.2s0.5,0.2,0.7,0.3c0.7,0.5,1.5,1.1,2.2,1.6c0.5,0.4,1,0.7,1.6,0.9
				c1.1,0.3,3.1-0.5,4.4-0.7c1.4-0.3,2.7-0.6,4.1-0.9c3.7-0.8,7.4-1.6,11.1-2.3c8.8-1.9,17.7-3.7,26.5-5.6
				c6.4-1.4,12.8-2.7,19.3-4.1c0.7-0.1,1.4-0.3,2.2-0.5l2.6-10l56-10.4l10.1-58.7c5.2,8.4,10.5,16.8,15.7,25.2
				c4.2,6.7,8.4,13.4,12.6,20.1c4,6.4,7.6,14.2,12.9,19.6c0.7,0.7,7.2,5.6,7,5.9l-23.7,31.5c8.1,8.8,16.3,17.6,24.4,26.4
				c3.5,3.8,7.1,7.4,10.5,11.3c4.5,5.1,9.1,9.6,12.4,15.7c4.9,9.1,7.3,19.5,10.3,29.4c3.3,10.8,6.6,21.6,9.9,32.4
				c-8.4,3.9-16.8,7.8-25.2,11.8c-4.4,2-8.8,4.1-13.1,6.2c-0.2,0.1-0.4,0.2-0.6,0.1h-0.1c-0.2-0.1-0.3-0.2-0.4-0.3
				c-7.3-6.9-14.6-13.9-22-20.8c-6.2-5.8-12.3-11.7-18.5-17.5c-2.8-2.6-5.5-5.3-8.4-7.9c-3.5-3.2-6.5-7.2-10.6-9.9
				c-1-0.7-2.1-1.3-3.2-1.7c-1.6-0.7-3.4-1.2-5.2-1.6c-7.2-1.8-14.3-3.7-21.5-5.5c-11.3-2.9-23-6.1-34.8-6.1c-7.8,0-15.7,0-23.6-0.2
				c-14.8-0.2-29.6-0.4-44.3-0.7c-0.2,0-0.4,0-0.6-0.1c-0.1-0.1-0.2-0.3-0.2-0.5c-1.1-4.6-1.1-9.4-0.1-14c0.1-0.3,0.1-0.5,0.3-0.7
				s0.5-0.3,0.9-0.4c0.2-0.1,0.5-0.1,0.7-0.1l3.4-13.5l5.6,12.2c0.6-0.1,1.2-0.1,1.8-0.2l4.1-13l4,11.9c0.7-0.1,1.5-0.2,2.2-0.3
				l4.4-12.3l3.2,11.1c0.9-0.1,1.9-0.3,2.8-0.4l4.9-10.7l3.5,9.3c1-0.2,2-0.3,3.1-0.5l3.6-8.9l3.9,7.7c4.1-0.6,8.2-1.3,12.3-1.9
				c0.2,0,0.3-0.1,0.4-0.2c0.1-0.1,0.1-0.3,0.1-0.4c0-4.4-0.1-8.8-0.1-13.2c0-0.2,0-0.4-0.1-0.5s-0.2-0.1-0.4-0.1
				c-5-0.6-10-1.2-15-1.8l-4.5,7.5l-4.3-8.5c-0.6-0.1-1.3-0.2-1.9-0.2l-6,8.8l-3.9-10C43,146,42.5,145.9,42.1,145.8z"/>
		</g>
		<g>
			<polygon class="st2" points="279.6,141 224.7,117.6 248.3,153 			"/>
			<polygon class="st2" points="310.8,141 365.6,117.6 342,153 			"/>
			<path class="st2" d="M295.2,290.5c1.8,0,3.5-0.5,5.2-0.9c8.9-2.2,17.7-4.5,26.6-6.7c0.7-0.2,1.5-0.4,2-1c0.4-0.4,0.5-1,0.7-1.5
				c8.7-30.3,17.1-61,26.8-91c1-3.3,2-6.6,3.6-9.7c2.1-4.1,5.3-7.4,8.5-10.7c12.7-13.4,25.4-26.7,38.1-40.1c-6.7-9-13.4-18-20-26.9
				c-1-1.3-1.9-2.6-2.4-4.2c-1.5-4.8,2-9.5,4-14c3.6-7.9,3-17.1,2.3-25.9c-1.6-19.2-3.1-38.5-4.7-57.7C370,15.6,354,31,338.1,46.5
				c-1.1,1.1-2.3,2.2-3.7,2.8c-2,0.9-4.3,0.6-6.5,0.3c-10.5-1.5-21.3-3.5-32.1-3.7c-11.1-0.2-22.1,2.2-33,3.7
				c-2.2,0.3-4.5,0.6-6.5-0.3c-1.4-0.6-2.5-1.7-3.7-2.8c-15.9-15.4-31.9-30.8-47.8-46.3c-1.6,19.2-3.1,38.5-4.7,57.7
				c-0.7,8.7-1.3,18,2.3,25.9c2.1,4.5,5.5,9.3,4,14c-0.5,1.6-1.5,2.9-2.4,4.2c-6.7,9-13.4,17.9-20,26.9
				c12.7,13.4,25.4,26.7,38.1,40.1c3.1,3.3,6.3,6.6,8.5,10.7c1.6,3,2.6,6.4,3.6,9.7c3.7,15.4,9,30.6,13.5,45.8
				c4.5,15.1,9,30.2,13.3,45.3c0.2,0.6,0.4,1.2,0.8,1.7c0.4,0.4,1,0.5,1.5,0.7c9.1,2.3,18.2,4.6,27.3,6.9c1.5,0.4,3,0.7,4.5,0.8
				C294.9,290.5,295,290.5,295.2,290.5z"/>
			<path class="st2" d="M353.4,211.6c3-9.9,5.4-20.2,10.3-29.4c3.3-6.1,7.9-10.6,12.4-15.7c3.4-3.9,7-7.5,10.4-11.3
				c8.1-8.8,16.3-17.6,24.4-26.4l-23.7-31.5c-0.2-0.3,6.3-5.1,7-5.9c5.3-5.4,8.9-13.2,12.9-19.6c4.2-6.7,8.4-13.4,12.6-20.1
				c5.2-8.4,10.5-16.8,15.7-25.2l10.1,58.7l56,10.4l2.6,10c0.7,0.2,1.4,0.3,2.2,0.5c6.4,1.4,12.9,2.7,19.3,4.1
				c8.8,1.9,17.7,3.7,26.5,5.6c3.7,0.8,7.4,1.6,11.1,2.3c1.4,0.3,2.7,0.6,4.1,0.9c1.2,0.3,3.2,1.1,4.4,0.7c0.6-0.2,1.1-0.6,1.6-0.9
				c0.7-0.5,1.5-1.1,2.2-1.6c0.2-0.2,0.4-0.3,0.7-0.3c0.2,0,0.5,0.1,0.7,0.2c4.3,1.8,8.6,3.6,12.9,5.5c0.1,0,0.2,0.1,0.3,0.2
				s0.1,0.2,0,0.3c-0.2,2.5-0.5,5-0.7,7.5c-0.1,0.7-0.1,1.3-0.3,2c-0.2,0.6-0.5,1.2-0.9,1.8c-0.9,1.5-1.8,3-2.6,4.4
				c-0.2,0.4-1.4,3-1.8,3.1c-0.7,0.1-1.4,0.2-2.1,0.3l-5.9,12.3l-4.8-11.1c-0.9,0.1-1.7,0.2-2.6,0.3c-1.1,3.7-3.6,12.1-3.9,12
				c-0.2-0.1-3.4-7.2-5.1-10.9c-0.8,0.1-1.6,0.2-2.4,0.3l-3.3,11.2l-5.6-10.1c-0.5,0.1-1,0.1-1.5,0.2l-3.9,10l-6-8.8
				c-0.6,0.1-1.2,0.2-1.9,0.2l-4.3,8.5l-4.5-7.5c-5,0.6-10,1.2-15,1.8c-0.1,0-0.3,0-0.4,0.1c-0.1,0.1-0.1,0.3-0.1,0.5
				c-0.1,4.4-0.1,8.8-0.1,13.2c0,0.1,0,0.3,0.1,0.4c0.1,0.1,0.3,0.1,0.4,0.2c4.1,0.6,8.2,1.3,12.4,1.9l3.9-7.7l3.6,8.9
				c1,0.2,2,0.3,3.1,0.5l3.5-9.3l4.9,10.7c0.9,0.1,1.9,0.3,2.8,0.4l3.2-11.1l4.4,12.3c0.7,0.1,1.5,0.2,2.2,0.3l4-11.9l4.1,13
				c0.6,0.1,1.2,0.1,1.8,0.2l5.6-12.2l3.4,13.5c0.2,0.1,0.5,0.1,0.7,0.1c0.3,0.1,0.6,0.1,0.9,0.4c0.2,0.2,0.2,0.5,0.3,0.7
				c1,4.6,1,9.4-0.1,14c0,0.2-0.1,0.4-0.2,0.5c-0.2,0.1-0.4,0.1-0.6,0.1c-14.8,0.2-29.5,0.5-44.3,0.7c-7.9,0.1-15.7,0.1-23.6,0.2
				c-11.8,0-23.5,3.2-34.8,6.1c-7.2,1.8-14.3,3.7-21.5,5.5c-1.7,0.4-3.5,0.9-5.2,1.6c-1.1,0.5-2.2,1.1-3.2,1.7
				c-4.1,2.6-7.1,6.6-10.6,9.9c-2.8,2.6-5.6,5.3-8.4,7.9c-6.2,5.8-12.3,11.7-18.5,17.5c-7.3,6.9-14.6,13.9-21.9,20.8
				c-0.1,0.1-0.3,0.2-0.4,0.3c0,0,0,0-0.1,0c-0.2,0-0.4-0.1-0.6-0.1c-4.4-2.1-8.7-4.2-13.1-6.2c-8.4-3.9-16.8-7.8-25.2-11.8
				C346.9,233.2,350.2,222.4,353.4,211.6z"/>
			<path class="st2" d="M236.8,211.6c-3-9.9-5.4-20.2-10.3-29.4c-3.3-6.1-7.9-10.6-12.4-15.7c-3.4-3.9-7-7.5-10.5-11.3
				c-8.1-8.8-16.3-17.6-24.4-26.4l23.7-31.5c0.2-0.3-6.3-5.1-7-5.9C190.6,86,187,78.2,183,71.8c-4.2-6.7-8.4-13.4-12.6-20.1
				c-5.2-8.4-10.5-16.8-15.7-25.2l-10.1,58.7l-56,10.4l-2.6,10c-0.7,0.2-1.4,0.3-2.2,0.5c-6.4,1.4-12.8,2.7-19.3,4.1
				c-8.8,1.9-17.7,3.7-26.5,5.6c-3.7,0.8-7.4,1.6-11.1,2.3c-1.4,0.3-2.7,0.6-4.1,0.9c-1.2,0.3-3.2,1.1-4.4,0.7
				c-0.6-0.2-1.1-0.6-1.6-0.9c-0.7-0.5-1.5-1.1-2.2-1.6c-0.2-0.2-0.4-0.3-0.7-0.3c-0.2,0-0.5,0.1-0.7,0.2c-4.3,1.8-8.6,3.6-12.9,5.5
				c-0.1,0-0.2,0.1-0.2,0.2c-0.1,0.1-0.1,0.2,0,0.3c0.2,2.5,0.4,5,0.7,7.5c0.1,0.7,0.1,1.3,0.3,2c0.2,0.6,0.5,1.2,0.9,1.8
				c0.9,1.5,1.8,3,2.6,4.4c0.2,0.4,1.4,3,1.8,3.1c0.7,0.1,1.4,0.2,2.1,0.3l5.8,12.3l4.8-11.1c0.9,0.1,1.7,0.2,2.6,0.3
				c1.1,3.7,3.6,12.1,3.9,12c0.2-0.1,3.4-7.2,5.1-10.9c0.8,0.1,1.6,0.2,2.4,0.3l3.3,11.2l5.6-10.1c0.5,0.1,1,0.1,1.5,0.2l3.9,10
				l6-8.8c0.6,0.1,1.3,0.2,1.9,0.2l4.3,8.5l4.5-7.5c5,0.6,10,1.2,15,1.8c0.1,0,0.3,0,0.4,0.1s0.1,0.3,0.1,0.5
				c0,4.4,0.1,8.8,0.1,13.2c0,0.1,0,0.3-0.1,0.4c-0.1,0.1-0.3,0.1-0.4,0.2c-4.1,0.6-8.2,1.3-12.3,1.9l-3.9-7.7l-3.6,8.9
				c-1,0.2-2,0.3-3.1,0.5l-3.5-9.3L47.9,170c-0.9,0.1-1.9,0.3-2.8,0.4l-3.2-11.1l-4.4,12.3c-0.8,0.1-1.5,0.2-2.2,0.3l-4-11.9
				l-4.1,13c-0.6,0.1-1.2,0.1-1.8,0.2L19.8,161l-3.4,13.5c-0.2,0.1-0.5,0.1-0.7,0.1c-0.3,0.1-0.7,0.1-0.9,0.4
				c-0.2,0.2-0.2,0.5-0.3,0.7c-1,4.6-1,9.4,0.1,14c0.1,0.2,0.1,0.4,0.2,0.5c0.2,0.1,0.4,0.1,0.6,0.1c14.8,0.2,29.5,0.5,44.3,0.7
				c7.9,0.1,15.7,0.1,23.6,0.2c11.8,0,23.5,3.2,34.8,6.1c7.2,1.8,14.3,3.7,21.5,5.5c1.8,0.4,3.5,0.9,5.2,1.6
				c1.1,0.5,2.2,1.1,3.2,1.7c4.1,2.6,7.1,6.6,10.6,9.9c2.8,2.6,5.6,5.3,8.4,7.9c6.2,5.8,12.3,11.7,18.5,17.5
				c7.3,6.9,14.6,13.9,22,20.8c0.1,0.1,0.2,0.2,0.4,0.3h0.1c0.2,0,0.4-0.1,0.6-0.1c4.4-2.1,8.7-4.2,13.1-6.2
				c8.4-3.9,16.8-7.8,25.2-11.8C243.3,233.2,240.1,222.4,236.8,211.6z"/>
			<polygon class="st2" points="489.2,112.2 444.2,103.3 466.8,125.1 			"/>
			<polygon class="st2" points="101,112.2 146,103.3 123.4,125.1 			"/>
			<polygon class="st2" points="440.7,198.2 411.7,169.4 423.8,138.7 421.5,138.7 408.9,170 437.8,198.9 439.3,200.2 441.6,199 			
				"/>
			<polygon class="st2" points="318.6,268.6 295.2,258.7 271.7,268.6 271.7,270.9 295.2,260.9 318.6,270.9 			"/>
			<polygon class="st2" points="149.5,198.2 178.5,169.4 166.4,138.7 168.7,138.7 181.3,170 152.4,198.9 151,200.2 148.6,199 			"/>
		</g>
	</g>
</g>
<g id="Layer_12" class="st0">
	<g id="XMLID_12_" class="st1">
		<g>
			<path class="st9" d="M1242.4,172.8c4.2,7.3,8.4,14.6,12.6,21.9c-8.9,13-17.8,26-26.8,39c-2.2,3.3-4.5,6.6-6.2,10.3
				c-1.9,4.3-3,9-4,13.6c-1.3,5.9-2.6,11.7-3.9,17.6c-0.3,1.5-0.7,3-1.5,4.1c-0.9,1.2-2.1,1.9-3.4,2.5c-12.4,6-25.9,8.9-39.4,8.8
				c-13.7-0.1-27.4-3.4-39.9-9.8c-1-0.5-2.1-1.1-2.9-2.1c-0.8-1.1-1.1-2.5-1.4-3.9c-1.3-5.8-2.6-11.5-3.9-17.3
				c-1-4.6-2.1-9.3-4-13.6c-1.1-2.5-2.5-4.7-3.9-6.9c4.8-16.8,9.7-33.5,15.1-50.1l8.4,11.1l24-14.2l-27.5-10.1
				c-0.1,0.1-0.2,0.3-0.3,0.4c2.2-4,5.4-7.4,8.5-10.7c7.1-7.4,14.1-14.9,21.2-22.3c10.5-0.8,21.1,0.3,31.3,3.3c0.1,0,0.1,0,0.1-0.1
				c14.1-19.6,28.2-47.9,42.2-67.5c0,2.1,0.3,4.4,0.5,6.5c1,12.8,2,25.6,3,38.3c0.4,5.8,1.5,12,1,17.8c-0.6,6.3-1.1,12.7-1.7,19
				c-0.2,2.8-0.3,5.6,0.2,8.3c0.1,0.5,0.1,0.5,0.1,0.5C1240.4,169.4,1241.4,171.1,1242.4,172.8z M1201.1,198l24-31.8l-48,17.5
				L1201.1,198z M1204.7,269l-3.5-30l-5.4,1.6l-5.2,20.6l-6.7-20.9l-13.6,0.3l-13.6-0.3l-6.7,20.9l-5.2-20.6l-5.4-1.6l-3.5,30
				l17.7,8.1l6.2-22.9l5.1,23.1h5.4h5.4l5.1-23.1l6.2,22.9L1204.7,269z M1184.3,223.7v-1.5l-15.5-6.6l-15.5,6.6v1.5l15.5-6.6
				L1184.3,223.7z"/>
			<path class="st9" d="M1158.4,92.7c6.9,9.3,13.9,18.7,20.8,28c-13.2,13.9-26.4,27.8-39.6,41.7c-3.3,3.4-6.5,6.9-8.8,11.1
				c-1.7,3.1-2.7,6.6-3.7,10.1c-10,31.2-18.7,63-27.8,94.6c-0.2,0.6-0.3,1.1-0.7,1.6c-0.5,0.6-1.3,0.8-2.1,1
				c-9.2,2.3-18.4,4.7-27.6,7c-1.8,0.4-3.6,0.9-5.4,0.9c-0.1,0-0.2,0-0.3,0c-1.6,0-3.1-0.4-4.7-0.8c-9.5-2.4-18.9-4.8-28.4-7.1
				c-0.6-0.1-1.1-0.3-1.6-0.7s-0.7-1.1-0.8-1.7c-4.5-15.7-9.2-31.4-13.8-47c-4.6-15.8-10.1-31.6-14-47.6c-1-3.4-2-6.9-3.7-10.1
				c-2.2-4.2-5.5-7.7-8.8-11.1c-13.2-13.9-26.4-27.8-39.6-41.7c6.9-9.3,13.9-18.6,20.8-28c1-1.3,2-2.7,2.5-4.3
				c1.6-5-2.1-9.9-4.2-14.6c-3.7-8.2-3.1-17.8-2.3-26.9c1.6-20,3.2-40,4.9-60c16.5,16,33.1,32,49.7,48.1c1.2,1.1,2.3,2.3,3.8,2.9
				c2.1,0.9,4.5,0.6,6.8,0.3c11.4-1.6,22.8-4.1,34.3-3.9c11.2,0.2,22.5,2.4,33.3,3.9c2.3,0.3,4.7,0.6,6.8-0.3
				c1.5-0.6,2.7-1.8,3.8-2.9c16.5-16,33.1-32,49.7-48.1c1.6,20,3.2,40,4.9,60c0.7,9.1,1.4,18.6-2.3,26.9c-2.1,4.7-5.8,9.6-4.2,14.6
				C1156.4,89.9,1157.4,91.3,1158.4,92.7z M1112.1,145.7l24.5-36.8l-57,24.3L1112.1,145.7z M1087.9,268.2v-2.4l-24.4-10.3
				l-24.4,10.3v2.4l24.4-10.4L1087.9,268.2z M1014.8,145.7l32.5-12.5l-57-24.3L1014.8,145.7z"/>
			<path class="st9" d="M1013.1,237c-1.4,2.2-2.8,4.5-3.9,6.9c-1.9,4.3-3,8.9-4,13.6c-1.3,5.8-2.6,11.5-3.9,17.3
				c-0.3,1.4-0.6,2.8-1.4,3.9c-0.7,1-1.8,1.6-2.8,2.1c-12.5,6.4-26.2,9.7-39.9,9.8c-13.5,0.1-27-2.8-39.4-8.8
				c-1.2-0.6-2.5-1.3-3.4-2.5c-0.8-1.2-1.2-2.7-1.5-4.1c-1.3-5.9-2.6-11.7-3.9-17.6c-1-4.6-2.1-9.3-4-13.6c-1.7-3.7-3.9-7-6.2-10.3
				c-8.9-13-17.8-26-26.8-39c4.2-7.3,8.4-14.6,12.6-21.9c1-1.7,2-3.5,2.5-5.4c0,0,0,0,0.1-0.5c0.5-2.7,0.4-5.5,0.2-8.3
				c-0.6-6.3-1.1-12.7-1.7-19c-0.5-5.8,0.6-12,1-17.8c1-12.8,2-25.5,3-38.3c0.2-2.1,0.5-4.4,0.5-6.5c14.1,19.6,28.2,47.9,42.2,67.5
				c0,0.1,0,0.1,0.1,0.1c10.2-3,20.8-4,31.3-3.3c7.1,7.4,14.1,14.9,21.2,22.3c3.1,3.3,6.3,6.6,8.5,10.7c-0.1-0.1-0.2-0.3-0.3-0.4
				L965.7,184l24,14.2l8.4-11.1C1003.4,203.5,1008.3,220.2,1013.1,237z M991,269l-3.5-30l-5.4,1.6l-5.2,20.6l-6.7-20.9l-13.6,0.3
				l-13.6-0.3l-6.7,20.9l-5.2-20.6l-5.4-1.6l-3.5,30l17.7,8.1l6.2-22.9l5.1,23.1h5.4h5.4l5.1-23.1l6.2,22.9L991,269z M973.6,223.7
				v-1.5l-15.5-6.6l-15.5,6.6v1.5l15.5-6.6L973.6,223.7z M925.9,198l24-14.2l-48-17.5L925.9,198z"/>
		</g>
		<g>
			<polygon class="st5" points="1177.1,183.8 1225.1,166.3 1201.1,198 			"/>
			<polygon class="st5" points="1170.3,240.5 1156.7,240.3 1150,261.1 1144.9,240.5 1139.5,238.9 1136,269 1153.7,277.1 
				1159.9,254.2 1164.9,277.3 1170.3,277.3 1175.7,277.3 1180.8,254.2 1187,277.1 1204.7,269 1201.2,238.9 1195.8,240.5 
				1190.6,261.1 1183.9,240.3 			"/>
			<path class="st5" d="M1128.9,186.9c-5.3,16.6-10.2,33.3-15.1,50.1c1.4,2.2,2.8,4.5,3.9,6.9c1.9,4.3,3,8.9,4,13.6
				c1.3,5.8,2.6,11.5,3.9,17.3c0.3,1.4,0.6,2.8,1.4,3.9c0.8,1,1.8,1.6,2.9,2.1c12.5,6.4,26.2,9.7,39.9,9.8c13.5,0.1,27-2.8,39.4-8.8
				c1.2-0.6,2.5-1.3,3.4-2.5c0.8-1.2,1.2-2.7,1.5-4.1c1.3-5.9,2.6-11.7,3.9-17.6c1-4.6,2.1-9.3,4-13.6c1.7-3.7,3.9-7,6.2-10.3
				c8.9-13,17.8-26,26.8-39c-4.2-7.3-8.4-14.6-12.6-21.9c-1-1.7-2-3.5-2.5-5.4c0,0,0,0-0.1-0.5c-0.5-2.7-0.4-5.5-0.2-8.3
				c0.6-6.3,1.1-12.7,1.7-19c0.5-5.8-0.6-12-1-17.8c-1-12.8-2-25.5-3-38.3c-0.2-2.1-0.5-4.4-0.5-6.5c-14.1,19.6-28.2,47.9-42.2,67.5
				c0,0.1,0,0.1-0.1,0.1c-10.2-3-20.8-4-31.3-3.3c-7.1,7.4-14.1,14.9-21.2,22.3"/>
			<path class="st5" d="M1133.6,174.2c2.2-4,5.4-7.4,8.5-10.7"/>
			<polygon class="st5" points="1047.3,133.2 990.3,108.9 1014.8,145.7 			"/>
			<polygon class="st5" points="1079.7,133.2 1136.7,108.9 1112.1,145.7 			"/>
			<path class="st5" d="M1063.5,288.5c1.8,0,3.6-0.5,5.4-0.9c9.2-2.3,18.4-4.6,27.6-7c0.8-0.2,1.5-0.4,2.1-1c0.4-0.4,0.5-1,0.7-1.6
				c9.1-31.5,17.8-63.3,27.8-94.6c1-3.4,2-6.9,3.7-10.1c2.2-4.2,5.5-7.7,8.8-11.1c13.2-13.9,26.4-27.8,39.6-41.7
				c-6.9-9.3-13.9-18.6-20.8-28c-1-1.3-2-2.7-2.5-4.3c-1.6-5,2.1-9.9,4.2-14.6c3.7-8.2,3.1-17.8,2.3-26.9c-1.6-20-3.2-40-4.9-60
				c-16.5,16-33.1,32-49.7,48.1c-1.2,1.1-2.3,2.3-3.8,2.9c-2.1,0.9-4.5,0.6-6.8,0.3c-10.9-1.5-22.2-3.7-33.3-3.9
				c-11.5-0.2-22.9,2.3-34.3,3.9c-2.3,0.3-4.7,0.6-6.8-0.3c-1.5-0.6-2.6-1.8-3.8-2.9c-16.6-16-33.1-32-49.7-48.1
				c-1.6,20-3.2,40-4.9,60c-0.7,9.1-1.4,18.6,2.3,26.9c2.1,4.7,5.8,9.6,4.2,14.6c-0.5,1.6-1.5,3-2.5,4.3c-6.9,9.3-13.9,18.7-20.8,28
				c13.2,13.9,26.4,27.8,39.6,41.7c3.2,3.4,6.5,6.9,8.8,11.1c1.7,3.1,2.7,6.6,3.7,10.1c3.9,16,9.4,31.8,14,47.6
				c4.6,15.7,9.3,31.3,13.8,47c0.2,0.6,0.4,1.3,0.8,1.7s1,0.5,1.6,0.7c9.5,2.4,18.9,4.8,28.4,7.1c1.5,0.4,3.1,0.8,4.7,0.8
				C1063.3,288.5,1063.4,288.5,1063.5,288.5z"/>
			<polygon class="st5" points="1087.9,265.8 1063.5,255.5 1039.1,265.8 1039.1,268.2 1063.5,257.8 1087.9,268.2 			"/>
			<polygon class="st5" points="1184.3,222.2 1168.8,215.6 1153.4,222.2 1153.4,223.7 1168.8,217.1 1184.3,223.7 			"/>
			<polygon class="st5" points="949.9,183.8 901.9,166.3 925.9,198 			"/>
			<polygon class="st5" points="956.6,240.5 970.2,240.3 976.9,261.1 982.1,240.5 987.5,238.9 991,269 973.3,277.1 967.1,254.2 
				962,277.3 956.6,277.3 951.3,277.3 946.2,254.2 940,277.1 922.3,269 925.8,238.9 931.2,240.5 936.3,261.1 943,240.3 			"/>
			<path class="st5" d="M998.1,186.9c5.3,16.6,10.2,33.3,15.1,50.1c-1.4,2.2-2.8,4.5-3.9,6.9c-1.9,4.3-3,8.9-4,13.6
				c-1.3,5.8-2.6,11.5-3.9,17.3c-0.3,1.4-0.6,2.8-1.4,3.9c-0.7,1-1.8,1.6-2.8,2.1c-12.5,6.4-26.2,9.7-39.9,9.8
				c-13.5,0.1-27-2.8-39.4-8.8c-1.2-0.6-2.5-1.3-3.4-2.5c-0.8-1.2-1.2-2.7-1.5-4.1c-1.3-5.9-2.6-11.7-3.9-17.6
				c-1-4.6-2.1-9.3-4-13.6c-1.7-3.7-3.9-7-6.2-10.3c-8.9-13-17.8-26-26.8-39c4.2-7.3,8.4-14.6,12.6-21.9c1-1.7,2-3.5,2.5-5.4
				c0,0,0,0,0.1-0.5c0.5-2.7,0.4-5.5,0.2-8.3c-0.6-6.3-1.1-12.7-1.7-19c-0.5-5.8,0.6-12,1-17.8c1-12.8,2-25.5,3-38.3
				c0.2-2.1,0.5-4.4,0.5-6.5c14.1,19.6,28.2,47.9,42.2,67.5c0,0.1,0,0.1,0.1,0.1c10.2-3,20.8-4,31.3-3.3
				c7.1,7.4,14.1,14.9,21.2,22.3c3.1,3.3,6.3,6.6,8.5,10.7"/>
			<path class="st5" d="M998.1,186.9l-8.4,11.1l-24-14.2l27.5-10.1c0.1,0.1,0.2,0.3,0.3,0.4"/>
			<polygon class="st5" points="942.6,222.2 958.1,215.6 973.6,222.2 973.6,223.7 958.1,217.1 942.6,223.7 			"/>
		</g>
	</g>
</g>
<g id="Layer_6" class="st0">
	<g id="XMLID_4_" class="st1">
		<g>
			<path class="st11" d="M1185-186.3l-35.2,15l20,7.7L1185-186.3z M1112.3-178.8c-0.3,0.5-0.6,1-0.9,1.6c-1.5,2.8-2.4,5.9-3.3,8.9
				c-0.1,0.5-0.3,1.1-0.4,1.6l2,3.1l20-7.7L1112.3-178.8z M1139.8-94.4l15.1,6.4v-1.5l-15.1-6.4l-15,6.4v1.5L1139.8-94.4z
				 M1100.2-141.4c2.8-8.9,5.6-17.8,7.7-26.9c0.9-3,1.8-6.1,3.3-8.9c2-3.7,4.9-6.8,7.8-9.9c11.7-12.3,23.4-24.6,35.1-36.9
				c-2-2.6-3.9-5.3-5.9-7.9c4.2,0.5,8.3,1.3,12.5,1.9c1.4,0.2,2.9,0.4,4.2-0.2c0.9-0.4,1.6-1.1,2.4-1.8
				c10.2-9.9,20.4-19.8,30.7-29.7c1,12.3,2,24.7,3,37c0.5,5.6,0.9,11.5-1.5,16.6c-1.3,2.9-3.6,5.9-2.6,9c0.3,1,0.9,1.8,1.6,2.7
				c4.3,5.8,8.6,11.5,12.9,17.3c-8.1,8.6-16.3,17.1-24.4,25.7c-2,2.1-4,4.3-5.4,6.9c-1,1.9-1.7,4.1-2.3,6.2
				c-2.4,9.9-5.8,19.6-8.7,29.4c-2.9,9.7-5.8,19.3-8.5,29c-0.1,0.4-0.2,0.8-0.5,1.1c-0.3,0.3-0.6,0.3-1,0.4
				c-5.8,1.5-11.7,2.9-17.5,4.4c-0.9,0.2-1.9,0.5-2.9,0.5c-0.1,0-0.1,0-0.2,0c-1.1,0-2.2-0.3-3.3-0.6c-5.7-1.4-11.4-2.9-17.1-4.3
				c-0.5-0.1-1-0.3-1.3-0.6c-0.2-0.3-0.3-0.6-0.4-0.9c-5.6-19.5-11-39.1-17.2-58.4C1100.4-140.6,1100.3-141,1100.2-141.4z"/>
			<path class="st11" d="M1114-234.6l-50.5,21.5l28.8,11.1L1114-234.6z M984.2-234.6l21.7,32.7l28.8-11.1L984.2-234.6z
				 M1049.1-104.6l-21.6,9.2v2.1l21.6-9.2l21.6,9.2v-2.1L1049.1-104.6z M961.4-289.6c1.4-17.7,2.9-35.5,4.3-53.2
				c14.7,14.2,29.4,28.4,44,42.6c1,1,2.1,2,3.4,2.6c1.9,0.8,4,0.5,6,0.3c10.1-1.4,20.2-3.6,30.4-3.4c9.9,0.2,19.9,2.1,29.5,3.4
				c2,0.3,4.1,0.5,6-0.3c1.3-0.5,2.3-1.6,3.4-2.6c14.7-14.2,29.4-28.4,44-42.6c1.4,17.7,2.9,35.5,4.3,53.2c0.6,8,1.2,16.5-2.1,23.9
				c-1.9,4.2-5.1,8.5-3.7,12.9c0.5,1.4,1.4,2.7,2.2,3.8c6.2,8.3,12.3,16.5,18.5,24.8c-11.7,12.3-23.4,24.6-35.1,36.9
				c-2.9,3-5.8,6.1-7.8,9.9c-1.5,2.8-2.4,5.9-3.3,8.9c-8.9,27.7-16.6,55.9-24.7,83.9c-0.1,0.5-0.3,1-0.6,1.4
				c-0.5,0.5-1.2,0.7-1.8,0.9c-8.2,2.1-16.3,4.1-24.5,6.2c-1.6,0.4-3.2,0.8-4.8,0.8c-0.1,0-0.2,0-0.3,0c-1.4,0-2.8-0.4-4.1-0.7
				c-8.4-2.1-16.8-4.2-25.2-6.3c-0.5-0.1-1-0.3-1.4-0.6c-0.4-0.4-0.6-1-0.8-1.5c-4-13.9-8.2-27.8-12.2-41.7c-4.1-14-9-28-12.4-42.2
				c-0.9-3-1.8-6.1-3.3-8.9c-2-3.7-4.9-6.8-7.8-9.9c-11.7-12.3-23.4-24.6-35.1-36.9c6.1-8.3,12.3-16.5,18.5-24.8
				c0.9-1.2,1.8-2.4,2.2-3.8c1.4-4.4-1.8-8.7-3.7-12.9C960.1-273.1,960.7-281.6,961.4-289.6z"/>
			<path class="st11" d="M913.5-186.3l15.1,22.7l20.1-7.7L913.5-186.3z M958.7-94.4l15,6.4v-1.5l-15-6.4l-15.1,6.4v1.5L958.7-94.4z
				 M990.8-166.6c-0.1-0.5-0.3-1.1-0.4-1.6c-0.9-3-1.8-6.1-3.3-8.9c-0.3-0.5-0.6-1.1-0.9-1.6l-17.4,7.4l20,7.7L990.8-166.6z
				 M979.5-187c2.9,3,5.8,6.1,7.8,9.9c1.5,2.8,2.4,5.9,3.3,8.9c2.2,9,4.9,18,7.7,26.9c-0.1,0.4-0.2,0.8-0.3,1.1
				c-6.2,19.3-11.6,38.9-17.2,58.4c-0.1,0.3-0.2,0.7-0.4,0.9c-0.3,0.4-0.8,0.5-1.3,0.6c-5.7,1.4-11.4,2.9-17.1,4.3
				c-1.1,0.3-2.2,0.5-3.3,0.6c-0.1,0-0.1,0-0.2,0c-1,0-1.9-0.3-2.9-0.5c-5.8-1.5-11.7-2.9-17.5-4.4c-0.4-0.1-0.7-0.2-1-0.4
				c-0.3-0.3-0.4-0.7-0.5-1.1c-2.8-9.7-5.7-19.4-8.5-29c-2.9-9.8-6.3-19.5-8.7-29.4c-0.6-2.1-1.3-4.3-2.3-6.2
				c-1.4-2.6-3.4-4.7-5.4-6.9c-8.1-8.6-16.3-17.1-24.4-25.7c4.3-5.8,8.6-11.5,12.9-17.3c0.6-0.8,1.2-1.7,1.6-2.7
				c1-3.1-1.3-6.1-2.6-9c-2.3-5.1-1.9-11-1.5-16.6c1-12.3,2-24.7,3-37c10.2,9.9,20.4,19.8,30.7,29.7c0.7,0.7,1.5,1.4,2.4,1.8
				c1.3,0.6,2.8,0.4,4.2,0.2c4.1-0.6,8.3-1.4,12.5-1.9c-2,2.6-3.9,5.3-5.9,7.9C956.1-211.7,967.8-199.3,979.5-187z"/>
		</g>
		<g>
			<polygon class="st7" points="1034.7,-213.1 984.2,-234.6 1006,-202 			"/>
			<polygon class="st7" points="1063.5,-213.1 1114,-234.6 1092.3,-202 			"/>
			<path class="st7" d="M1049.1-75.3c1.6,0,3.2-0.4,4.8-0.8c8.2-2.1,16.3-4.1,24.5-6.2c0.7-0.2,1.4-0.4,1.8-0.9
				c0.3-0.4,0.5-0.9,0.6-1.4c8.1-28,15.8-56.2,24.7-83.9c0.9-3,1.8-6.1,3.3-8.9c2-3.7,4.9-6.8,7.8-9.9
				c11.7-12.3,23.4-24.6,35.1-36.9c-6.2-8.3-12.3-16.5-18.5-24.8c-0.9-1.2-1.8-2.4-2.2-3.8c-1.4-4.4,1.8-8.7,3.7-12.9
				c3.3-7.3,2.7-15.8,2.1-23.9c-1.4-17.7-2.9-35.5-4.3-53.2c-14.7,14.2-29.4,28.4-44,42.6c-1,1-2.1,2-3.4,2.6c-1.9,0.8-4,0.5-6,0.3
				c-9.6-1.4-19.6-3.2-29.5-3.4c-10.2-0.2-20.3,2-30.4,3.4c-2,0.3-4.1,0.5-6-0.3c-1.3-0.5-2.4-1.6-3.4-2.6
				c-14.7-14.2-29.4-28.4-44-42.6c-1.4,17.7-2.9,35.5-4.3,53.2c-0.7,8-1.2,16.5,2.1,23.9c1.9,4.2,5.1,8.5,3.7,12.9
				c-0.5,1.4-1.4,2.7-2.2,3.8c-6.2,8.3-12.3,16.5-18.5,24.8c11.7,12.3,23.4,24.6,35.1,36.9c2.9,3,5.8,6.1,7.8,9.9
				c1.5,2.8,2.4,5.9,3.3,8.9c3.4,14.2,8.3,28.2,12.4,42.2c4.1,13.9,8.3,27.8,12.2,41.7c0.2,0.6,0.3,1.1,0.8,1.5
				c0.4,0.4,0.9,0.5,1.4,0.6c8.4,2.1,16.8,4.2,25.2,6.3c1.4,0.3,2.7,0.7,4.1,0.7C1048.9-75.3,1049-75.3,1049.1-75.3z"/>
			<polygon class="st2" points="1070.7,-95.5 1049.1,-104.6 1027.5,-95.5 1027.5,-93.4 1049.1,-102.6 1070.7,-93.4 			"/>
			<polygon class="st7" points="948.7,-171.3 913.5,-186.3 928.6,-163.6 			"/>
			<polygon class="st2" points="973.7,-89.4 958.7,-95.8 943.6,-89.4 943.6,-88 958.7,-94.4 973.7,-88 			"/>
			<path class="st7" d="M990.6-168.3c-0.9-3-1.8-6.1-3.3-8.9c-2-3.7-4.9-6.8-7.8-9.9c-11.7-12.3-23.4-24.6-35.1-36.9
				c2-2.6,3.9-5.3,5.9-7.9c-4.2,0.5-8.4,1.3-12.5,1.9c-1.4,0.2-2.9,0.4-4.2-0.2c-0.9-0.4-1.6-1.1-2.4-1.8
				c-10.2-9.9-20.4-19.8-30.7-29.7c-1,12.3-2,24.7-3,37c-0.5,5.6-0.9,11.5,1.5,16.6c1.3,2.9,3.6,5.9,2.6,9c-0.3,1-0.9,1.8-1.6,2.7
				c-4.3,5.8-8.6,11.5-12.9,17.3c8.1,8.6,16.3,17.1,24.4,25.7c2,2.1,4,4.3,5.4,6.9c1,1.9,1.7,4.1,2.3,6.2c2.4,9.9,5.8,19.6,8.7,29.4
				c2.9,9.7,5.8,19.3,8.5,29c0.1,0.4,0.2,0.8,0.5,1.1c0.3,0.3,0.6,0.3,1,0.4c5.8,1.5,11.7,2.9,17.5,4.4c0.9,0.2,1.9,0.5,2.9,0.5
				c0.1,0,0.1,0,0.2,0c1.1,0,2.2-0.3,3.3-0.6c5.7-1.4,11.4-2.9,17.1-4.3c0.5-0.1,1-0.3,1.3-0.6c0.2-0.3,0.3-0.6,0.4-0.9
				c5.6-19.5,11-39.1,17.2-58.4c0.1-0.4,0.2-0.8,0.3-1.1C995.5-150.3,992.8-159.2,990.6-168.3z"/>
			<path class="st7" d="M990.4-168.3c-0.9-3-1.8-6.1-3.3-8.9c-0.3-0.5-0.6-1.1-0.9-1.6l-17.4,7.4l20,7.7l2-3.1
				C990.6-167.2,990.5-167.7,990.4-168.3z"/>
			<polygon class="st7" points="1149.8,-171.3 1185,-186.3 1169.8,-163.6 			"/>
			<polygon class="st2" points="1124.7,-89.4 1139.8,-95.8 1154.8,-89.4 1154.8,-88 1139.8,-94.4 1124.7,-88 			"/>
			<path class="st7" d="M1107.9-168.3c0.9-3,1.8-6.1,3.3-8.9c2-3.7,4.9-6.8,7.8-9.9c11.7-12.3,23.4-24.6,35.1-36.9
				c-2-2.6-3.9-5.3-5.9-7.9c4.2,0.5,8.3,1.3,12.5,1.9c1.4,0.2,2.9,0.4,4.2-0.2c0.9-0.4,1.6-1.1,2.4-1.8
				c10.2-9.9,20.4-19.8,30.7-29.7c1,12.3,2,24.7,3,37c0.5,5.6,0.9,11.5-1.5,16.6c-1.3,2.9-3.6,5.9-2.6,9c0.3,1,0.9,1.8,1.6,2.7
				c4.3,5.8,8.6,11.5,12.9,17.3c-8.1,8.6-16.3,17.1-24.4,25.7c-2,2.1-4,4.3-5.4,6.9c-1,1.9-1.7,4.1-2.3,6.2
				c-2.4,9.9-5.8,19.6-8.7,29.4c-2.9,9.7-5.8,19.3-8.5,29c-0.1,0.4-0.2,0.8-0.5,1.1c-0.3,0.3-0.6,0.3-1,0.4
				c-5.8,1.5-11.7,2.9-17.5,4.4c-0.9,0.2-1.9,0.5-2.9,0.5c-0.1,0-0.1,0-0.2,0c-1.1,0-2.2-0.3-3.3-0.6c-5.7-1.4-11.4-2.9-17.1-4.3
				c-0.5-0.1-1-0.3-1.3-0.6c-0.2-0.3-0.3-0.6-0.4-0.9c-5.6-19.5-11-39.1-17.2-58.4c-0.1-0.4-0.2-0.8-0.4-1.1
				C1102.9-150.3,1105.7-159.2,1107.9-168.3z"/>
			<path class="st7" d="M1108.1-168.3c0.9-3,1.8-6.1,3.3-8.9c0.3-0.5,0.6-1.1,0.9-1.6l17.4,7.4l-20,7.7l-2-3.1
				C1107.8-167.2,1108-167.7,1108.1-168.3z"/>
		</g>
	</g>
</g>
<g id="The_Ian_Colored" class="st0">
	<g class="st1">
		<g id="XMLID_10_">
			<g>
				<path class="st12" d="M795.4-247c5.7,7.7,11.4,15.4,17.1,23.1c-10.9,11.4-21.8,22.9-32.6,34.3c-2.7,2.8-5.4,5.7-7.2,9.2
					c-1.4,2.6-2.2,5.5-3.1,8.3c-3.2,13.2-7.7,26.2-11.6,39.2c-3.8,12.9-7.7,25.8-11.4,38.8c-0.1,0.5-0.3,1.1-0.7,1.4
					s-0.8,0.5-1.3,0.6c-7.8,2-15.6,3.9-23.4,5.9c-1.3,0.3-2.5,0.6-3.9,0.7c-0.1,0-0.2,0-0.3,0c-1.5,0-3-0.4-4.4-0.7
					c-7.6-1.9-15.2-3.8-22.8-5.7c-0.6-0.2-1.3-0.3-1.7-0.8c-0.3-0.4-0.4-0.8-0.6-1.3c-3.1-10.6-6.1-21.3-9.1-31.9c0.3-1,0.6-2,0.9-3
					c4.4-14.8,9.5-29.7,13.2-44.7c1-3.2,1.9-6.5,3.5-9.5c2.1-4,5.2-7.2,8.3-10.5c12.4-13.1,24.8-26.1,37.2-39.2
					c-6.5-8.8-13.1-17.5-19.6-26.3c-0.9-1.3-1.9-2.6-2.4-4.1c-1.5-4.7,1.9-9.3,3.9-13.7c2.5-5.5,2.9-11.5,2.7-17.6
					c6.3,0.6,12.5,1.9,18.7,2.7c1.9,0.3,3.9,0.5,5.6-0.2c1.2-0.5,2.2-1.5,3.1-2.4c13.6-13.2,27.3-26.4,40.9-39.6
					c1.3,16.5,2.7,32.9,4,49.4c0.6,7.5,1.2,15.4-1.9,22.2c-1.8,3.9-4.7,7.9-3.5,12C793.8-249.3,794.6-248.1,795.4-247z M758.8-203.3
					l20.2-30.3l-47,20L758.8-203.3z M738.7-102.4v-1.9l-20.1-8.5l-20.1,8.5v1.9l20.1-8.5L738.7-102.4z"/>
				<path class="st12" d="M719-258.9c6.5,8.8,13,17.5,19.6,26.3c-12.4,13.1-24.8,26.1-37.2,39.2c-3.1,3.2-6.2,6.5-8.3,10.4
					c-1.6,3-2.5,6.2-3.5,9.5c-9.4,29.3-17.6,59.3-26.1,88.9c-0.2,0.5-0.3,1.1-0.6,1.5c-0.5,0.6-1.2,0.8-1.9,0.9
					c-8.6,2.2-17.3,4.4-26,6.6c-1.7,0.4-3.4,0.8-5.1,0.9c-0.1,0-0.2,0-0.3,0c-1.5,0-2.9-0.4-4.4-0.8c-8.9-2.2-17.8-4.5-26.7-6.7
					c-0.5-0.1-1.1-0.3-1.5-0.6c-0.4-0.4-0.6-1-0.8-1.6c-4.2-14.8-8.6-29.5-13-44.2c-4.4-14.8-9.5-29.7-13.2-44.7
					c-1-3.2-1.9-6.5-3.5-9.5c-2.1-4-5.2-7.2-8.3-10.4c-12.4-13.1-24.8-26.1-37.2-39.2c6.5-8.8,13.1-17.5,19.6-26.3
					c0.9-1.3,1.9-2.6,2.4-4.1c1.5-4.7-1.9-9.3-3.9-13.7c-3.5-7.8-2.9-16.8-2.2-25.3c1.5-18.8,3.1-37.6,4.6-56.4
					c15.6,15.1,31.1,30.1,46.7,45.2c1.1,1.1,2.2,2.1,3.6,2.7c2,0.8,4.3,0.6,6.4,0.3c10.7-1.5,21.4-3.9,32.2-3.6
					c10.5,0.2,21.1,2.2,31.3,3.6c2.1,0.3,4.4,0.6,6.4-0.3c1.4-0.6,2.5-1.7,3.6-2.7c15.6-15.1,31.1-30.1,46.7-45.2
					c1.5,18.8,3.1,37.6,4.6,56.4c0.7,8.5,1.3,17.5-2.2,25.3c-2,4.4-5.4,9-4,13.7C717.1-261.5,718.1-260.2,719-258.9z M675.6-209.1
					l23-34.6L645-220.9L675.6-209.1z M652.7-94v-2.2l-22.9-9.7l-22.9,9.7v2.2l22.9-9.7L652.7-94z M584.1-209.1l30.5-11.8L561-243.7
					L584.1-209.1z"/>
				<path class="st12" d="M579.7-129.2c0.3,1,0.6,2,0.9,3c-3.1,10.7-6.1,21.3-9.1,31.9c-0.1,0.5-0.3,0.9-0.6,1.3
					c-0.4,0.5-1.1,0.7-1.7,0.8c-7.6,1.9-15.2,3.8-22.8,5.7c-1.5,0.4-3,0.7-4.5,0.7c-0.1,0-0.2,0-0.3,0c-1.3,0-2.6-0.4-3.8-0.7
					c-7.8-2-15.6-3.9-23.4-5.9c-0.5-0.1-0.9-0.2-1.3-0.6c-0.4-0.4-0.6-0.9-0.7-1.4c-3.7-13-7.6-25.9-11.4-38.8
					c-3.8-13-8.4-26-11.6-39.2c-0.8-2.8-1.7-5.7-3.1-8.3c-1.9-3.5-4.6-6.3-7.2-9.2c-10.9-11.4-21.8-22.9-32.6-34.3
					c5.7-7.7,11.4-15.4,17.2-23.1c0.8-1.1,1.7-2.2,2.1-3.6c1.3-4.1-1.7-8.1-3.5-12c-3.1-6.8-2.5-14.7-1.9-22.2
					c1.3-16.5,2.7-32.9,4-49.4c13.6,13.2,27.3,26.4,40.9,39.6c0.9,0.9,1.9,1.9,3.1,2.4c1.8,0.7,3.7,0.5,5.6,0.2
					c6.2-0.9,12.5-2.1,18.7-2.7c-0.2,6.1,0.2,12.1,2.7,17.6c2,4.4,5.4,9,3.9,13.7c-0.5,1.5-1.4,2.8-2.4,4.1
					c-6.5,8.8-13,17.5-19.6,26.3c12.4,13.1,24.8,26.1,37.2,39.2c3.1,3.2,6.2,6.5,8.3,10.5c1.6,3,2.5,6.2,3.5,9.5
					C570.1-158.9,575.3-144.1,579.7-129.2z M562-102.4v-1.9l-20.1-8.5l-20.1,8.5v1.9l20.1-8.5L562-102.4z M500.4-203.3l26.7-10.3
					l-46.9-20L500.4-203.3z"/>
			</g>
			<g>
				<polygon class="st7" points="527.2,-213.6 480.2,-233.7 500.4,-203.3 				"/>
				<polygon class="st2" points="562,-104.4 541.9,-112.9 521.8,-104.4 521.8,-102.4 541.9,-111 562,-102.4 				"/>
				<polygon class="st7" points="614.6,-220.9 561,-243.7 584.1,-209.1 				"/>
				<polygon class="st7" points="645,-220.9 698.6,-243.7 675.6,-209.1 				"/>
				<path class="st7" d="M629.8-74.9c1.7,0,3.4-0.4,5.1-0.9c8.7-2.2,17.3-4.4,26-6.6c0.7-0.2,1.5-0.4,1.9-0.9
					c0.3-0.4,0.5-0.9,0.6-1.5c8.5-29.6,16.7-59.5,26.1-88.9c1-3.2,1.9-6.5,3.5-9.5c2.1-4,5.2-7.2,8.3-10.4
					c12.4-13.1,24.8-26.1,37.2-39.2c-6.5-8.8-13-17.5-19.6-26.3c-0.9-1.3-1.9-2.6-2.4-4.1c-1.5-4.7,1.9-9.3,4-13.7
					c3.5-7.8,2.9-16.8,2.2-25.3c-1.5-18.8-3.1-37.6-4.6-56.4c-15.6,15.1-31.1,30.1-46.7,45.2c-1.1,1.1-2.2,2.1-3.6,2.7
					c-2,0.8-4.2,0.6-6.4,0.3c-10.2-1.4-20.8-3.4-31.3-3.6c-10.8-0.2-21.6,2.1-32.2,3.6c-2.1,0.3-4.4,0.6-6.4-0.3
					c-1.4-0.6-2.5-1.7-3.6-2.7c-15.6-15.1-31.1-30.1-46.7-45.2c-1.5,18.8-3.1,37.6-4.6,56.4c-0.7,8.5-1.3,17.5,2.2,25.3
					c2,4.4,5.4,9,3.9,13.7c-0.5,1.5-1.4,2.8-2.4,4.1c-6.5,8.8-13,17.5-19.6,26.3c12.4,13.1,24.8,26.1,37.2,39.2
					c3.1,3.2,6.2,6.5,8.3,10.4c1.6,3,2.5,6.2,3.5,9.5c3.6,15.1,8.8,29.9,13.2,44.7c4.4,14.7,8.8,29.5,13,44.2
					c0.2,0.6,0.4,1.2,0.8,1.6c0.4,0.4,0.9,0.5,1.5,0.6c8.9,2.2,17.8,4.5,26.7,6.7c1.4,0.4,2.9,0.7,4.4,0.8
					C629.6-74.9,629.7-74.9,629.8-74.9z"/>
				<polygon class="st2" points="652.7,-96.2 629.8,-105.9 606.9,-96.2 606.9,-94 629.8,-103.7 652.7,-94 				"/>
				<path class="st7" d="M579.7-129.2c-4.4-14.8-9.5-29.7-13.2-44.7c-0.9-3.2-1.9-6.5-3.5-9.5c-2.1-4-5.2-7.2-8.3-10.5
					c-12.4-13.1-24.8-26.1-37.2-39.2c6.5-8.8,13-17.5,19.6-26.3c0.9-1.3,1.9-2.6,2.4-4.1c1.5-4.7-1.9-9.3-3.9-13.7
					c-2.5-5.5-2.9-11.5-2.7-17.6c-6.3,0.6-12.5,1.9-18.7,2.7c-1.9,0.3-3.8,0.5-5.6-0.2c-1.2-0.5-2.2-1.5-3.1-2.4
					c-13.6-13.2-27.3-26.4-40.9-39.6c-1.3,16.5-2.7,32.9-4,49.4c-0.6,7.5-1.1,15.4,1.9,22.2c1.8,3.9,4.7,7.9,3.5,12
					c-0.4,1.3-1.3,2.5-2.1,3.6c-5.7,7.7-11.4,15.4-17.2,23.1c10.9,11.4,21.8,22.9,32.6,34.3c2.7,2.8,5.4,5.7,7.2,9.2
					c1.4,2.6,2.2,5.5,3.1,8.3c3.2,13.2,7.7,26.2,11.6,39.2c3.8,12.9,7.7,25.8,11.4,38.8c0.1,0.5,0.3,1.1,0.7,1.4s0.8,0.5,1.3,0.6
					c7.8,2,15.6,3.9,23.4,5.9c1.3,0.3,2.5,0.6,3.8,0.7c0.1,0,0.2,0,0.3,0c1.5,0,3-0.4,4.5-0.7c7.6-1.9,15.2-3.8,22.8-5.7
					c0.6-0.2,1.3-0.3,1.7-0.8c0.3-0.4,0.5-0.8,0.6-1.3c3.1-10.6,6.1-21.3,9.1-31.9C580.3-127.2,580-128.2,579.7-129.2z"/>
				<polygon class="st7" points="732,-213.6 779,-233.7 758.8,-203.3 				"/>
				<polygon class="st2" points="698.6,-104.4 718.7,-112.9 738.7,-104.4 738.7,-102.4 718.7,-111 698.6,-102.4 				"/>
				<path class="st7" d="M679.5-129.2c4.4-14.8,9.5-29.7,13.2-44.7c1-3.2,1.9-6.5,3.5-9.5c2.1-4,5.2-7.2,8.3-10.5
					c12.4-13.1,24.8-26.1,37.2-39.2c-6.5-8.8-13.1-17.5-19.6-26.3c-0.9-1.3-1.9-2.6-2.4-4.1c-1.5-4.7,1.9-9.3,3.9-13.7
					c2.5-5.5,2.9-11.5,2.7-17.6c6.3,0.6,12.5,1.9,18.7,2.7c1.9,0.3,3.9,0.5,5.6-0.2c1.2-0.5,2.2-1.5,3.1-2.4
					c13.6-13.2,27.3-26.4,40.9-39.6c1.3,16.5,2.7,32.9,4,49.4c0.6,7.5,1.2,15.4-1.9,22.2c-1.8,3.9-4.7,7.9-3.5,12
					c0.4,1.3,1.3,2.5,2.1,3.6c5.7,7.7,11.4,15.4,17.1,23.1c-10.9,11.4-21.8,22.9-32.6,34.3c-2.7,2.8-5.4,5.7-7.2,9.2
					c-1.4,2.6-2.2,5.5-3.1,8.3c-3.2,13.2-7.7,26.2-11.6,39.2c-3.8,12.9-7.7,25.8-11.4,38.8c-0.1,0.5-0.3,1.1-0.7,1.4
					s-0.8,0.5-1.3,0.6c-7.8,2-15.6,3.9-23.4,5.9c-1.3,0.3-2.5,0.6-3.9,0.7c-0.1,0-0.2,0-0.3,0c-1.5,0-3-0.4-4.4-0.7
					c-7.6-1.9-15.2-3.8-22.8-5.7c-0.6-0.2-1.3-0.3-1.7-0.8c-0.3-0.4-0.4-0.8-0.6-1.3c-3.1-10.6-6.1-21.3-9.1-31.9
					C678.9-127.2,679.2-128.2,679.5-129.2z"/>
			</g>
		</g>
	</g>
</g>
<g id="Layer_10" class="st0">
	<g id="XMLID_6_" class="st1">
		<g>
			<path class="st9" d="M379.6-250.7c0,0.1,0,0.2,0,0.3c-0.2,2.1-0.4,4.2-0.6,6.3c-0.1,0.6-0.1,1.1-0.3,1.6s-0.5,1-0.7,1.5
				c-0.7,1.2-1.5,2.5-2.2,3.7c-0.2,0.3-1.2,2.5-1.5,2.6c-0.6,0.1-1.2,0.1-1.8,0.2l-4.9,10.3l-4-9.3c-0.7,0.1-1.4,0.2-2.2,0.3
				c-0.9,3.1-3,10.1-3.2,10s-2.9-6-4.3-9.1c-0.7,0.1-1.3,0.2-2,0.2l-2.8,9.4l-4.7-8.5c-0.4,0-0.8,0.1-1.2,0.1l-3.3,8.3l-5.1-7.4
				c-0.5,0.1-1,0.1-1.6,0.2l-3.6,7.2l-3.8-6.3c-4.2,0.5-8.4,1-12.6,1.5c-0.1,0-0.2,0-0.3,0.1s-0.1,0.2-0.1,0.4c0,3.7-0.1,7.4-0.1,11
				c0,0.1,0,0.3,0.1,0.4s0.2,0.1,0.3,0.1c3.5,0.5,6.9,1.1,10.4,1.6l3.2-6.4l3,7.4c0.9,0.1,1.7,0.3,2.6,0.4l3-7.8l4.1,8.9
				c0.8,0.1,1.6,0.2,2.4,0.4l2.7-9.3l3.7,10.3c0.6,0.1,1.2,0.2,1.9,0.3l3.3-10l3.4,10.9c0.5,0.1,1,0.1,1.5,0.2l4.7-10.2l2.9,11.4
				c0.2,0,0.4,0.1,0.6,0.1c0.3,0.1,0.5,0.1,0.7,0.3c0.1,0.2,0.2,0.4,0.2,0.6c0.9,3.9,0.8,7.9-0.1,11.7c0,0.2-0.1,0.3-0.2,0.4
				c-0.1,0.1-0.3,0.1-0.5,0.1c-12.4,0.2-24.8,0.4-37.2,0.6c-6.6,0.1-13.2,0.1-19.8,0.1c-9.9,0-19.7,2.7-29.2,5.1
				c-6,1.5-12,3.1-18,4.6c-1.5,0.4-2.9,0.8-4.3,1.3c-0.9,0.4-1.8,0.9-2.7,1.4c-3.4,2.2-7.4,4.6-10.3,7.3c-0.8,0.7-1.6,1.6-2.7,2.8
				c-4.2-6.4-8.1-12.4-11.6-17.7c-1-1.5-4.9-5-7.9-7.9c-8.7-8.4-4.8-5-9-8.7c-3.7-3.2-7.4-6.4-11.2-9.6c-4.8-4-9.6-8-14.4-12
				c0.1-0.2-5.3-4.3-5.9-4.9c-2.9-2.9-5.1-6.6-7.3-10.3c8-7.8,4.4-4.6,8.5-8.2c3.7-3.2,7.4-6.4,11.2-9.6c4.8-4,9.6-8,14.4-12
				c-0.1-0.2,5.3-4.3,5.9-4.9c4.5-4.5,7.5-11,10.8-16.4c3.5-5.6,7-11.2,10.5-16.8c4.4-7,8.8-14.1,13.2-21.1l8.5,49.2l46.9,8.7
				l2.1,8.4c0.6,0.1,1.2,0.3,1.8,0.4c5.4,1.1,10.8,2.3,16.2,3.4c7.4,1.6,14.8,3.1,22.2,4.7c3.1,0.6,6.2,1.3,9.3,2
				c1.2,0.2,2.3,0.5,3.5,0.7c1,0.2,2.7,0.9,3.7,0.6c0.5-0.2,0.9-0.5,1.4-0.8c0.6-0.4,1.2-0.9,1.8-1.4c0.2-0.1,0.4-0.2,0.6-0.3
				c0.2,0,0.4,0.1,0.6,0.1c3.6,1.5,7.2,3,10.8,4.6C379.5-250.8,379.6-250.8,379.6-250.7z M276.3-248.5l18.8-10.9l-37.7-7.5
				L276.3-248.5z M253.2-185.6l2-1l-0.8-0.7l-24.3-24.2l10.2-25.7h-2L227.8-211l24.2,24.2L253.2-185.6z"/>
			<path class="st9" d="M278.3-110.2c-0.4-0.7-46.4,9.4-49.3,10.7c-8.5,3.6-18.2,5.1-26.7,8.7c-3.7,1.7-14.8,4.5-18.5,6.3
				c-0.1,0.1-0.3,0.1-0.5,0.1c0,0,0,0-0.1,0s-0.2-0.1-0.3-0.2c-6.1-5.8-6.4-13.9-10.9-21.6c-3.6-6.2-9.3-10.8-14.5-15.7
				c-3.4-3.2-5-5.2-6.6-6.6c-2.9-2.7-6.9-5.1-10.3-7.3c-0.9-0.5-1.7-1-2.7-1.4c-1.4-0.6-2.9-1-4.3-1.3c-6-1.5-12-3.1-18-4.6
				c-9.5-2.4-19.3-5.1-29.2-5.1c-6.6,0-13.2,0-19.8-0.1c-12.4-0.1-24.8-0.4-37.1-0.5c-0.2,0-0.4,0-0.5-0.1s-0.2-0.3-0.2-0.4
				c-0.9-3.8-0.9-7.9-0.1-11.7c0-0.2,0.1-0.4,0.3-0.6c0.2-0.2,0.5-0.3,0.7-0.3s0.4-0.1,0.6-0.1l2.9-11.4l4.7,10.2
				c0.5-0.1,1-0.1,1.5-0.2l3.4-10.9l3.3,10c0.6-0.1,1.2-0.2,1.9-0.3l3.7-10.3l2.7,9.3c0.8-0.1,1.6-0.2,2.4-0.4l4.1-8.9l3,7.8
				c0.9-0.1,1.7-0.3,2.6-0.4l3-7.4l3.2,6.5c3.4-0.5,6.9-1.1,10.3-1.6c0.1,0,0.3-0.1,0.3-0.1c0.1-0.1,0.1-0.2,0.1-0.4
				c0-3.7-0.1-7.4-0.1-11.1c0-0.1,0-0.3-0.1-0.4s-0.2-0.1-0.3-0.1c-4.2-0.5-8.4-1-12.6-1.5l-3.8,6.3l-3.6-7.2
				c-0.5-0.1-1.1-0.1-1.6-0.2l-5.1,7.4l-3.3-8.4c-0.4,0-0.8-0.1-1.2-0.1l-4.7,8.5l-2.8-9.4c-0.7-0.1-1.4-0.2-2-0.2
				c-1.4,3.1-4.1,9-4.3,9.1s-2.3-6.9-3.2-10c-0.7-0.1-1.4-0.2-2.1-0.2l-4,9.3L23.7-189c-0.6-0.1-1.2-0.1-1.8-0.2
				c-0.3,0-1.3-2.3-1.5-2.6c-0.7-1.2-1.5-2.5-2.2-3.7c-0.3-0.5-0.6-1-0.7-1.5c-0.2-0.5-0.2-1.1-0.3-1.6c-0.2-2.1-0.4-4.2-0.6-6.3
				c0-0.1,0-0.2,0-0.3c0.1-0.1,0.1-0.1,0.2-0.1c3.6-1.5,7.2-3,10.8-4.6c0.2-0.1,0.4-0.2,0.6-0.1c0.2,0,0.4,0.1,0.6,0.3
				c0.6,0.5,1.2,0.9,1.9,1.3c0.4,0.3,0.9,0.6,1.4,0.8c1,0.3,2.6-0.4,3.6-0.6c1.1-0.2,2.3-0.5,3.5-0.7c3.1-0.7,6.2-1.3,9.3-2
				c7.4-1.6,14.8-3.1,22.2-4.7c5.4-1.1,10.8-2.3,16.1-3.4c0.6-0.1,1.2-0.2,1.8-0.4l2.1-8.4l46.9-8.7l8.5-49.2
				c4.4,7,8.8,14.1,13.2,21.1c3.5,5.6,7,11.2,10.5,16.9c3.4,5.4,6.3,11.9,10.8,16.4c0.6,0.6,6,4.7,5.9,4.9c4.8,4,9.6,8,14.4,12
				c3.8,3.1,7.5,6.4,11.2,9.6c4.3,3.7,0.3,0.3,9,8.7c3,2.9,6.9,6.4,7.9,7.9C243.4-167,265.8-133,278.3-110.2z M169.6-164.9
				l-10.5-26.2h-2l10.2,25.7l-24.4,24.1l-0.8,0.7l2,1l1.2-1.1L169.6-164.9z M121.1-202.5l18.9-18.3l-37.7,7.5L121.1-202.5z"/>
			<path class="st9" d="M216.4-280.8c-0.7,0.9-1.4,1.8-2.2,2.5c-0.6,0.6-6,4.7-5.9,4.9c-4.8,4-9.6,8-14.4,12
				c-3.8,3.2-7.5,6.4-11.2,9.6c-4.2,3.6-0.5,0.4-8.5,8.2l-28.4-45.5l-9.4,50.6l-32.6,6C95-234.7,86-237,77-237.1
				c-6.6,0-13.2,0-19.8-0.1c-12.4-0.1-24.8-0.4-37.1-0.5c-0.2,0-0.4,0-0.5-0.1s-0.2-0.3-0.2-0.4c-0.9-3.8-0.9-7.9-0.1-11.7
				c0.1-0.2,0.1-0.4,0.2-0.6c0.2-0.2,0.5-0.3,0.7-0.3s0.4-0.1,0.6-0.1l2.9-11.4l4.7,10.2c0.5-0.1,1-0.1,1.5-0.2l3.4-10.9l3.3,10
				c0.6-0.1,1.2-0.2,1.9-0.3l3.7-10.3l2.7,9.3c0.8-0.1,1.6-0.2,2.4-0.4l4.1-8.9l3,7.8c0.8-0.1,1.7-0.3,2.6-0.4l3-7.4l3.2,6.4
				c3.5-0.5,6.9-1.1,10.4-1.6c0.1,0,0.3,0,0.3-0.1c0.1-0.1,0.1-0.2,0.1-0.4c0-3.7-0.1-7.4-0.1-11c0-0.1,0-0.3-0.1-0.4
				c-0.1-0.1-0.2-0.1-0.3-0.1c-4.2-0.5-8.4-1-12.6-1.5l-3.8,6.3l-3.6-7.2c-0.5-0.1-1-0.1-1.6-0.2l-5.1,7.4l-3.3-8.4
				c-0.4,0-0.8-0.1-1.2-0.1l-4.7,8.5l-2.8-9.4c-0.7-0.1-1.3-0.2-2-0.2c-1.4,3.1-4.1,9-4.3,9.1s-2.3-6.9-3.2-10
				c-0.7-0.1-1.4-0.2-2.1-0.2l-4,9.3l-4.9-10.3c-0.6-0.1-1.2-0.2-1.8-0.2c-0.3,0-1.3-2.3-1.5-2.6c-0.7-1.2-1.5-2.5-2.2-3.7
				c-0.3-0.5-0.6-1-0.7-1.5c-0.2-0.5-0.2-1.1-0.3-1.6c-0.2-2.1-0.4-4.2-0.6-6.3c0-0.1,0-0.2,0-0.3c0-0.1,0.1-0.1,0.2-0.1
				c3.6-1.5,7.2-3,10.9-4.6c0.2-0.1,0.4-0.2,0.6-0.1c0.2,0,0.4,0.1,0.6,0.3c0.6,0.5,1.2,0.9,1.9,1.3c0.4,0.3,0.9,0.6,1.4,0.8
				c1,0.3,2.6-0.4,3.7-0.6s2.3-0.5,3.4-0.7c3.1-0.7,6.2-1.3,9.3-2c7.4-1.6,14.8-3.1,22.2-4.7c5.4-1.1,10.8-2.3,16.2-3.4
				c0.6-0.1,1.2-0.2,1.8-0.4l2.1-8.4l46.9-8.7l8.5-49.2c4.4,7,8.8,14.1,13.2,21.1c3.5,5.6,7,11.2,10.5,16.8
				c3.4,5.4,6.3,11.9,10.8,16.4c0.6,0.6,6,4.7,5.9,4.9c4.8,4,9.6,8,14.4,12c3.8,3.1,7.5,6.4,11.2,9.6c4.3,3.7,0.3,0.3,9.1,8.7
				C213.4-283.6,215-282.1,216.4-280.8z M109.3-292.8l18.9-18.4l-37.7,7.5L109.3-292.8z"/>
		</g>
		<g>
			<polygon class="st2" points="90.5,-303.7 128.2,-311.2 109.3,-292.8 			"/>
			<path class="st2" d="M174.3-243.5c8-7.8,4.4-4.6,8.5-8.2c3.7-3.2,7.4-6.4,11.2-9.6c4.8-4,9.6-8,14.4-12c-0.1-0.2,5.3-4.3,5.9-4.9
				c0.8-0.8,1.5-1.6,2.2-2.5c-1.4-1.4-3-2.9-4.4-4.2c-8.7-8.4-4.8-5-9.1-8.7c-3.7-3.2-7.4-6.4-11.2-9.6c-4.8-4-9.6-8-14.4-12
				c0.1-0.2-5.3-4.3-5.9-4.9c-4.5-4.5-7.5-11-10.8-16.4c-3.5-5.6-7-11.2-10.5-16.8c-4.4-7-8.8-14.1-13.2-21.1l-8.5,49.2l-46.9,8.7
				l-2.1,8.4c-0.6,0.1-1.2,0.2-1.8,0.4c-5.4,1.1-10.8,2.3-16.2,3.4c-7.4,1.6-14.8,3.1-22.2,4.7c-3.1,0.7-6.2,1.3-9.3,2
				c-1.1,0.2-2.3,0.5-3.4,0.7c-1,0.2-2.7,0.9-3.7,0.6c-0.5-0.2-0.9-0.5-1.4-0.8c-0.6-0.4-1.2-0.9-1.9-1.3c-0.2-0.1-0.4-0.3-0.6-0.3
				s-0.4,0.1-0.6,0.1c-3.6,1.5-7.2,3-10.9,4.6c-0.1,0-0.2,0.1-0.2,0.1c-0.1,0.1,0,0.2,0,0.3c0.2,2.1,0.4,4.2,0.6,6.3
				c0,0.6,0.1,1.1,0.3,1.6c0.2,0.5,0.5,1,0.7,1.5c0.7,1.2,1.5,2.5,2.2,3.7c0.2,0.3,1.2,2.5,1.5,2.6c0.6,0.1,1.2,0.1,1.8,0.2
				l4.9,10.3l4-9.3c0.7,0.1,1.4,0.2,2.1,0.2c0.9,3.1,3,10.1,3.2,10s2.9-6,4.3-9.1c0.7,0.1,1.3,0.2,2,0.2l2.8,9.4l4.7-8.5
				c0.4,0,0.8,0.1,1.2,0.1l3.3,8.4l5.1-7.4c0.5,0.1,1,0.1,1.6,0.2l3.6,7.2l3.8-6.3c4.2,0.5,8.4,1,12.6,1.5c0.1,0,0.2,0,0.3,0.1
				c0.1,0.1,0.1,0.2,0.1,0.4c0,3.7,0.1,7.4,0.1,11c0,0.1,0,0.3-0.1,0.4c-0.1,0.1-0.2,0.1-0.3,0.1c-3.5,0.5-6.9,1.1-10.4,1.6
				l-3.2-6.4l-3,7.4c-0.9,0.1-1.7,0.3-2.6,0.4l-3-7.8l-4.1,8.9c-0.8,0.1-1.6,0.2-2.4,0.4l-2.7-9.3l-3.7,10.3
				c-0.6,0.1-1.2,0.2-1.9,0.3l-3.3-10L30-252.1c-0.5,0.1-1,0.1-1.5,0.2l-4.7-10.2l-2.9,11.4c-0.2,0-0.4,0.1-0.6,0.1
				c-0.3,0-0.5,0.1-0.7,0.3c-0.1,0.2-0.2,0.4-0.2,0.6c-0.9,3.8-0.8,7.9,0.1,11.7c0,0.1,0.1,0.3,0.2,0.4s0.3,0.1,0.5,0.1
				c12.4,0.2,24.8,0.4,37.1,0.5c6.6,0.1,13.2,0.1,19.8,0.1c9.1,0,18.1,2.3,26.8,4.6l32.6-6l9.4-50.6L174.3-243.5z"/>
			<polygon class="st2" points="102.3,-213.4 140,-220.9 121.1,-202.5 			"/>
			<polygon class="st2" points="142.9,-141.3 167.3,-165.4 157.1,-191.1 159.1,-191.1 169.6,-164.9 145.4,-140.7 144.2,-139.6 
				142.2,-140.6 			"/>
			<polygon class="st2" points="295.1,-259.4 257.4,-266.9 276.3,-248.5 			"/>
			<polygon class="st2" points="254.5,-187.3 230.2,-211.5 240.3,-237.2 238.4,-237.2 227.8,-211 252,-186.8 253.2,-185.6 
				255.2,-186.6 			"/>
			<path class="st2" d="M379.6-250.7c0-0.1-0.1-0.1-0.2-0.1c-3.6-1.5-7.2-3-10.8-4.6c-0.2-0.1-0.4-0.1-0.6-0.1s-0.4,0.1-0.6,0.3
				c-0.6,0.5-1.2,0.9-1.8,1.4c-0.4,0.3-0.9,0.6-1.4,0.8c-1,0.3-2.6-0.4-3.7-0.6c-1.2-0.2-2.3-0.5-3.5-0.7c-3.1-0.6-6.2-1.3-9.3-2
				c-7.4-1.6-14.8-3.1-22.2-4.7c-5.4-1.1-10.8-2.3-16.2-3.4c-0.6-0.1-1.2-0.2-1.8-0.4l-2.1-8.4l-46.9-8.7l-8.5-49.2
				c-4.4,7-8.8,14.1-13.2,21.1c-3.5,5.6-7,11.2-10.5,16.8c-3.4,5.4-6.3,11.9-10.8,16.4c-0.6,0.6-6,4.7-5.9,4.9c-4.8,4-9.6,8-14.4,12
				c-3.8,3.1-7.5,6.4-11.2,9.6c-4.2,3.6-0.5,0.4-8.5,8.2c2.1,3.7,4.4,7.4,7.3,10.3c0.6,0.6,6,4.7,5.9,4.9c4.8,4,9.6,8,14.4,12
				c3.8,3.1,7.5,6.4,11.2,9.6c4.3,3.7,0.3,0.3,9,8.7c3,2.9,6.9,6.4,7.9,7.9c3.5,5.3,7.4,11.3,11.6,17.7c1.1-1.1,1.9-2,2.7-2.8
				c2.9-2.7,6.9-5.1,10.3-7.3c0.9-0.6,1.7-1,2.7-1.4c1.4-0.6,2.9-1,4.3-1.3c6-1.5,12-3.1,18-4.6c9.5-2.4,19.3-5.1,29.2-5.1
				c6.6,0,13.2,0,19.8-0.1c12.4-0.1,24.8-0.4,37.2-0.6c0.2,0,0.4,0,0.5-0.1s0.2-0.3,0.2-0.4c0.9-3.8,0.9-7.9,0.1-11.7
				c-0.1-0.2-0.1-0.4-0.2-0.6c-0.2-0.2-0.5-0.3-0.7-0.3s-0.4-0.1-0.6-0.1l-2.9-11.4l-4.7,10.2c-0.5-0.1-1-0.1-1.5-0.2l-3.4-10.9
				l-3.3,10c-0.6-0.1-1.2-0.2-1.9-0.3l-3.7-10.3l-2.7,9.3c-0.8-0.1-1.6-0.2-2.4-0.4l-4.1-8.9l-3,7.8c-0.9-0.1-1.7-0.3-2.6-0.4
				l-3-7.4l-3.2,6.4c-3.5-0.5-6.9-1.1-10.4-1.6c-0.1,0-0.3,0-0.3-0.1c-0.1-0.1-0.1-0.2-0.1-0.4c0-3.7,0.1-7.4,0.1-11
				c0-0.1,0-0.3,0.1-0.4s0.2-0.1,0.3-0.1c4.2-0.5,8.4-1,12.6-1.5l3.8,6.3l3.6-7.2c0.5-0.1,1-0.1,1.6-0.2l5.1,7.4l3.3-8.3
				c0.4,0,0.8-0.1,1.2-0.1l4.7,8.5l2.8-9.4c0.7-0.1,1.3-0.2,2-0.2c1.4,3.1,4.1,9,4.3,9.1s2.3-6.9,3.2-10c0.7-0.1,1.4-0.2,2.2-0.3
				l4,9.3l4.9-10.3c0.6-0.1,1.2-0.1,1.8-0.2c0.4,0,1.3-2.3,1.5-2.6c0.7-1.2,1.5-2.5,2.2-3.7c0.3-0.5,0.6-1,0.7-1.5
				c0.2-0.5,0.2-1.1,0.3-1.6c0.2-2.1,0.4-4.2,0.6-6.3C379.7-250.5,379.7-250.6,379.6-250.7z"/>
			<path class="st2" d="M202.3-90.9c-3.7,1.7-14.8,4.5-18.5,6.3c-0.1,0.1-0.3,0.1-0.5,0.1c0,0,0,0-0.1,0s-0.2-0.1-0.3-0.2
				c-6.1-5.8-6.4-13.9-10.9-21.6c-3.6-6.2-9.3-10.8-14.5-15.7c-3.4-3.2-5-5.2-6.6-6.6c-2.9-2.7-6.9-5.1-10.3-7.3
				c-0.9-0.5-1.7-1-2.7-1.4c-1.4-0.6-2.9-1-4.3-1.3c-6-1.5-12-3.1-18-4.6c-9.5-2.4-19.3-5.1-29.2-5.1c-6.6,0-13.2,0-19.8-0.1
				c-12.4-0.1-24.8-0.4-37.1-0.5c-0.2,0-0.4,0-0.5-0.1s-0.2-0.3-0.2-0.4c-0.9-3.8-0.9-7.9-0.1-11.7c0-0.2,0.1-0.4,0.3-0.6
				c0.2-0.2,0.5-0.3,0.7-0.3s0.4-0.1,0.6-0.1l2.9-11.4l4.7,10.2c0.5-0.1,1-0.1,1.5-0.2l3.4-10.9l3.3,10c0.6-0.1,1.2-0.2,1.9-0.3
				l3.7-10.3l2.7,9.3c0.8-0.1,1.6-0.2,2.4-0.4l4.1-8.9l3,7.8c0.9-0.1,1.7-0.3,2.6-0.4l3-7.4l3.2,6.5c3.4-0.5,6.9-1.1,10.3-1.6
				c0.1,0,0.3-0.1,0.3-0.1c0.1-0.1,0.1-0.2,0.1-0.4c0-3.7-0.1-7.4-0.1-11.1c0-0.1,0-0.3-0.1-0.4s-0.2-0.1-0.3-0.1
				c-4.2-0.5-8.4-1-12.6-1.5l-3.8,6.3l-3.6-7.2c-0.5-0.1-1.1-0.1-1.6-0.2l-5.1,7.4l-3.3-8.4c-0.4,0-0.8-0.1-1.2-0.1l-4.7,8.5
				l-2.8-9.4c-0.7-0.1-1.4-0.2-2-0.2c-1.4,3.1-4.1,9-4.3,9.1s-2.3-6.9-3.2-10c-0.7-0.1-1.4-0.2-2.1-0.2l-4,9.3l-4.9-10.3
				c-0.6-0.1-1.2-0.1-1.8-0.2c-0.3,0-1.3-2.3-1.5-2.6c-0.7-1.2-1.5-2.5-2.2-3.7c-0.3-0.5-0.6-1-0.7-1.5c-0.2-0.5-0.2-1.1-0.3-1.6
				c-0.2-2.1-0.4-4.2-0.6-6.3c0-0.1,0-0.2,0-0.3c0.1-0.1,0.1-0.1,0.2-0.1c3.6-1.5,7.2-3,10.8-4.6c0.2-0.1,0.4-0.2,0.6-0.1
				c0.2,0,0.4,0.1,0.6,0.3c0.6,0.5,1.2,0.9,1.9,1.3c0.4,0.3,0.9,0.6,1.4,0.8c1,0.3,2.6-0.4,3.6-0.6c1.1-0.2,2.3-0.5,3.5-0.7
				c3.1-0.7,6.2-1.3,9.3-2c7.4-1.6,14.8-3.1,22.2-4.7c5.4-1.1,10.8-2.3,16.1-3.4c0.6-0.1,1.2-0.2,1.8-0.4l2.1-8.4l46.9-8.7l8.5-49.2
				c4.4,7,8.8,14.1,13.2,21.1c3.5,5.6,7,11.2,10.5,16.9c3.4,5.4,6.3,11.9,10.8,16.4c0.6,0.6,6,4.7,5.9,4.9c4.8,4,9.6,8,14.4,12
				c3.8,3.1,7.5,6.4,11.2,9.6c4.3,3.7,0.3,0.3,9,8.7c3,2.9,6.9,6.4,7.9,7.9c14.2,21.7,36.6,55.7,49,78.5
				c-0.4-0.7-46.4,9.4-49.3,10.7C220.4-96,210.8-94.5,202.3-90.9z"/>
		</g>
	</g>
</g>
</svg>
