<?xml version="1.0" encoding="utf-8"?>
<!-- Generator: Adobe Illustrator 19.1.0, SVG Export Plug-In . SVG Version: 6.00 Build 0)  -->
<svg version="1.1" id="Layer_1" xmlns="http://www.w3.org/2000/svg" xmlns:xlink="http://www.w3.org/1999/xlink" x="0px" y="0px"
	 viewBox="-255 257 512 512" style="enable-background:new -255 257 512 512;" xml:space="preserve">
<style type="text/css">
	.st0{fill:#222222;}
</style>
<path class="st0" d="M1,353c-111.7,0-208.4,65-256,160c47.6,95,144.3,160,256,160c111.7,0,208.4-65,256-160
	C209.4,418,112.7,353,1,353z M127.2,437.9c30.1,19.2,55.6,44.9,74.7,75.1c-19.1,30.3-44.6,56-74.7,75.1C89.4,612.3,45.8,625,1,625
	c-44.8,0-88.4-12.7-126.2-36.9c-30.1-19.2-55.6-44.9-74.7-75.1c19.1-30.3,44.6-56,74.7-75.1c2-1.2,3.9-2.5,5.9-3.6
	c-5,13.7-7.7,28.4-7.7,43.8c0,70.7,57.3,128,128,128s128-57.3,128-128c0-15.4-2.7-30.1-7.7-43.8
	C123.3,435.4,125.3,436.6,127.2,437.9z M1,462c0,26.5-21.5,48-48,48s-48-21.5-48-48s21.5-48,48-48S1,435.5,1,462z"/>
<path class="st0" d="M-10,526h-63c-13.8,0-25-11.2-25-25v-81c0-13.8,11.2-25,25-25h63c13.8,0,25,11.2,25,25v81
	C15,514.8,3.8,526-10,526z"/>
</svg>
