<?xml version="1.0" encoding="utf-8"?>
<!-- Generator: Adobe Illustrator 19.1.0, SVG Export Plug-In . SVG Version: 6.00 Build 0)  -->
<svg version="1.1" id="Layer_1" xmlns="http://www.w3.org/2000/svg" xmlns:xlink="http://www.w3.org/1999/xlink" x="0px" y="0px"
	 viewBox="-255 257 512 512" style="enable-background:new -255 257 512 512;" xml:space="preserve">
<style type="text/css">
	.st0{fill:#222222;}
</style>
<path class="st0" d="M164.7,405.2c38.8,27.5,70.7,64.5,92.3,107.8C209.4,608,112.7,673,1,673c-31.3,0-61.4-5.1-89.6-14.5l39-39
	c16.5,3.7,33.5,5.5,50.6,5.5c44.8,0,88.4-12.7,126.2-36.9c30.1-19.2,55.6-44.9,74.7-75.1c-18.5-29.3-43-54.3-71.8-73.2L164.7,405.2z
	 M1,606c-11.4,0-22.4-1.5-32.9-4.3l156.6-156.6c2.8,10.5,4.3,21.5,4.3,32.9C129,548.7,71.7,606,1,606z M225,257h-26.9L88.3,366.8
	C60.8,357.8,31.4,353,1,353c-111.7,0-208.4,65-256,160c21.3,42.6,52.6,79.2,90.6,106.5l-90.6,90.6V737h26.9L225,283.9V257z M-47,414
	c24,0,43.9,17.6,47.4,40.7l-54.8,54.8C-77.4,505.9-95,486-95,462C-95,435.5-73.5,414-47,414z M-199.9,513
	c19.1-30.3,44.6-56,74.7-75.1c2-1.2,3.9-2.5,5.9-3.6c-5,13.7-7.7,28.4-7.7,43.8c0,29.3,9.8,56.2,26.3,77.8l-29.3,29.3
	C-158,566.2-181.8,541.7-199.9,513z"/>
<ellipse class="st0" cx="-52" cy="455.5" rx="54" ry="56.5"/>
</svg>
